<svg enable-background="new 0 0 1920 973.2" viewBox="0 0 1920 973.2" xmlns="http://www.w3.org/2000/svg"><g opacity=".15"><g fill="#ccc"><path d="m19.1 22.1h2.4v2.5h-2.4zm40.1 0h2.4v2.5h-2.4zm40.1 0h2.4v2.5h-2.4zm40.1 0h2.4v2.5h-2.4zm40 0h2.4v2.5h-2.4zm40.1 0h2.4v2.5h-2.4zm40.1 0h2.4v2.5h-2.4zm40.1 0h2.4v2.5h-2.4zm40.1 0h2.4v2.5h-2.4zm40 0h2.4v2.5h-2.4zm40.1 0h2.4v2.5h-2.4zm40.1 0h2.4v2.5h-2.4zm40.1 0h2.4v2.5h-2.4zm40.1 0h2.4v2.5h-2.4zm40 0h2.4v2.5h-2.4zm40.1 0h2.4v2.5h-2.4zm40.1 0h2.4v2.5h-2.4zm40.1 0h2.4v2.5h-2.4zm40.1 0h2.4v2.5h-2.4zm40 0h2.4v2.5h-2.4zm40.1 0h2.4v2.5h-2.4zm40.1 0h2.4v2.5h-2.4zm40.1 0h2.4v2.5h-2.4zm40 0h2.4v2.5h-2.4z"/><path d="m19.1 62.2h2.4v2.5h-2.4zm40.1 0h2.4v2.5h-2.4zm40.1 0h2.4v2.5h-2.4zm40.1 0h2.4v2.5h-2.4zm40 0h2.4v2.5h-2.4zm40.1 0h2.4v2.5h-2.4zm40.1 0h2.4v2.5h-2.4zm40.1 0h2.4v2.5h-2.4zm40.1 0h2.4v2.5h-2.4zm40 0h2.4v2.5h-2.4zm40.1 0h2.4v2.5h-2.4zm40.1 0h2.4v2.5h-2.4zm40.1 0h2.4v2.5h-2.4zm40.1 0h2.4v2.5h-2.4zm40 0h2.4v2.5h-2.4zm40.1 0h2.4v2.5h-2.4zm40.1 0h2.4v2.5h-2.4zm40.1 0h2.4v2.5h-2.4zm40.1 0h2.4v2.5h-2.4zm40 0h2.4v2.5h-2.4zm40.1 0h2.4v2.5h-2.4zm40.1 0h2.4v2.5h-2.4zm40.1 0h2.4v2.5h-2.4zm40 0h2.4v2.5h-2.4z"/><path d="m19.1 102.2h2.4v2.5h-2.4zm40.1 0h2.4v2.5h-2.4zm40.1 0h2.4v2.5h-2.4zm40.1 0h2.4v2.5h-2.4zm40 0h2.4v2.5h-2.4zm40.1 0h2.4v2.5h-2.4zm40.1 0h2.4v2.5h-2.4zm40.1 0h2.4v2.5h-2.4zm40.1 0h2.4v2.5h-2.4zm40 0h2.4v2.5h-2.4zm40.1 0h2.4v2.5h-2.4zm40.1 0h2.4v2.5h-2.4zm40.1 0h2.4v2.5h-2.4zm40.1 0h2.4v2.5h-2.4zm40 0h2.4v2.5h-2.4zm40.1 0h2.4v2.5h-2.4zm40.1 0h2.4v2.5h-2.4zm40.1 0h2.4v2.5h-2.4zm40.1 0h2.4v2.5h-2.4zm40 0h2.4v2.5h-2.4zm40.1 0h2.4v2.5h-2.4zm40.1 0h2.4v2.5h-2.4zm40.1 0h2.4v2.5h-2.4zm40 0h2.4v2.5h-2.4z"/><path d="m19.1 142.3h2.4v2.5h-2.4zm40.1 0h2.4v2.5h-2.4zm40.1 0h2.4v2.5h-2.4zm40.1 0h2.4v2.5h-2.4zm40 0h2.4v2.5h-2.4zm40.1 0h2.4v2.5h-2.4zm40.1 0h2.4v2.5h-2.4zm40.1 0h2.4v2.5h-2.4zm40.1 0h2.4v2.5h-2.4zm40 0h2.4v2.5h-2.4zm40.1 0h2.4v2.5h-2.4zm40.1 0h2.4v2.5h-2.4zm40.1 0h2.4v2.5h-2.4zm40.1 0h2.4v2.5h-2.4zm40 0h2.4v2.5h-2.4zm40.1 0h2.4v2.5h-2.4zm40.1 0h2.4v2.5h-2.4zm40.1 0h2.4v2.5h-2.4zm40.1 0h2.4v2.5h-2.4zm40 0h2.4v2.5h-2.4zm40.1 0h2.4v2.5h-2.4zm40.1 0h2.4v2.5h-2.4zm40.1 0h2.4v2.5h-2.4zm40 0h2.4v2.5h-2.4z"/><path d="m19.1 182.4h2.4v2.5h-2.4zm40.1 0h2.4v2.5h-2.4zm40.1 0h2.4v2.5h-2.4zm40.1 0h2.4v2.5h-2.4zm40 0h2.4v2.5h-2.4zm40.1 0h2.4v2.5h-2.4zm40.1 0h2.4v2.5h-2.4zm40.1 0h2.4v2.5h-2.4zm40.1 0h2.4v2.5h-2.4zm40 0h2.4v2.5h-2.4zm40.1 0h2.4v2.5h-2.4zm40.1 0h2.4v2.5h-2.4zm40.1 0h2.4v2.5h-2.4zm40.1 0h2.4v2.5h-2.4zm40 0h2.4v2.5h-2.4zm40.1 0h2.4v2.5h-2.4zm40.1 0h2.4v2.5h-2.4zm40.1 0h2.4v2.5h-2.4zm40.1 0h2.4v2.5h-2.4zm40 0h2.4v2.5h-2.4zm40.1 0h2.4v2.5h-2.4zm40.1 0h2.4v2.5h-2.4zm40.1 0h2.4v2.5h-2.4zm40 0h2.4v2.5h-2.4z"/><path d="m19.1 222.5h2.4v2.5h-2.4zm40.1 0h2.4v2.5h-2.4zm40.1 0h2.4v2.5h-2.4zm40.1 0h2.4v2.5h-2.4zm40 0h2.4v2.5h-2.4zm40.1 0h2.4v2.5h-2.4zm40.1 0h2.4v2.5h-2.4zm40.1 0h2.4v2.5h-2.4zm40.1 0h2.4v2.5h-2.4zm40 0h2.4v2.5h-2.4zm40.1 0h2.4v2.5h-2.4zm40.1 0h2.4v2.5h-2.4zm40.1 0h2.4v2.5h-2.4zm40.1 0h2.4v2.5h-2.4zm40 0h2.4v2.5h-2.4zm40.1 0h2.4v2.5h-2.4zm40.1 0h2.4v2.5h-2.4zm40.1 0h2.4v2.5h-2.4zm40.1 0h2.4v2.5h-2.4zm40 0h2.4v2.5h-2.4zm40.1 0h2.4v2.5h-2.4zm40.1 0h2.4v2.5h-2.4zm40.1 0h2.4v2.5h-2.4zm40 0h2.4v2.5h-2.4z"/><path d="m19.1 262.6h2.4v2.5h-2.4zm40.1 0h2.4v2.5h-2.4zm40.1 0h2.4v2.5h-2.4zm40.1 0h2.4v2.5h-2.4zm40 0h2.4v2.5h-2.4zm40.1 0h2.4v2.5h-2.4zm40.1 0h2.4v2.5h-2.4zm40.1 0h2.4v2.5h-2.4zm40.1 0h2.4v2.5h-2.4zm40 0h2.4v2.5h-2.4zm40.1 0h2.4v2.5h-2.4zm40.1 0h2.4v2.5h-2.4zm40.1 0h2.4v2.5h-2.4zm40.1 0h2.4v2.5h-2.4zm40 0h2.4v2.5h-2.4zm40.1 0h2.4v2.5h-2.4zm40.1 0h2.4v2.5h-2.4zm40.1 0h2.4v2.5h-2.4zm40.1 0h2.4v2.5h-2.4zm40 0h2.4v2.5h-2.4zm40.1 0h2.4v2.5h-2.4zm40.1 0h2.4v2.5h-2.4zm40.1 0h2.4v2.5h-2.4zm40 0h2.4v2.5h-2.4z"/><path d="m19.1 302.6h2.4v2.5h-2.4zm40.1 0h2.4v2.5h-2.4zm40.1 0h2.4v2.5h-2.4zm40.1 0h2.4v2.5h-2.4zm40 0h2.4v2.5h-2.4zm40.1 0h2.4v2.5h-2.4zm40.1 0h2.4v2.5h-2.4zm40.1 0h2.4v2.5h-2.4zm40.1 0h2.4v2.5h-2.4zm40 0h2.4v2.5h-2.4zm40.1 0h2.4v2.5h-2.4zm40.1 0h2.4v2.5h-2.4zm40.1 0h2.4v2.5h-2.4zm40.1 0h2.4v2.5h-2.4zm40 0h2.4v2.5h-2.4zm40.1 0h2.4v2.5h-2.4zm40.1 0h2.4v2.5h-2.4zm40.1 0h2.4v2.5h-2.4zm40.1 0h2.4v2.5h-2.4zm40 0h2.4v2.5h-2.4zm40.1 0h2.4v2.5h-2.4zm40.1 0h2.4v2.5h-2.4zm40.1 0h2.4v2.5h-2.4zm40 0h2.4v2.5h-2.4z"/><path d="m19.1 342.7h2.4v2.5h-2.4zm40.1 0h2.4v2.5h-2.4zm40.1 0h2.4v2.5h-2.4zm40.1 0h2.4v2.5h-2.4zm40 0h2.4v2.5h-2.4zm40.1 0h2.4v2.5h-2.4zm40.1 0h2.4v2.5h-2.4zm40.1 0h2.4v2.5h-2.4zm40.1 0h2.4v2.5h-2.4zm40 0h2.4v2.5h-2.4zm40.1 0h2.4v2.5h-2.4zm40.1 0h2.4v2.5h-2.4zm40.1 0h2.4v2.5h-2.4zm40.1 0h2.4v2.5h-2.4zm40 0h2.4v2.5h-2.4zm40.1 0h2.4v2.5h-2.4zm40.1 0h2.4v2.5h-2.4zm40.1 0h2.4v2.5h-2.4zm40.1 0h2.4v2.5h-2.4zm40 0h2.4v2.5h-2.4zm40.1 0h2.4v2.5h-2.4zm40.1 0h2.4v2.5h-2.4zm40.1 0h2.4v2.5h-2.4zm40 0h2.4v2.5h-2.4z"/><path d="m19.1 382.8h2.4v2.5h-2.4zm40.1 0h2.4v2.5h-2.4zm40.1 0h2.4v2.5h-2.4zm40.1 0h2.4v2.5h-2.4zm40 0h2.4v2.5h-2.4zm40.1 0h2.4v2.5h-2.4zm40.1 0h2.4v2.5h-2.4zm40.1 0h2.4v2.5h-2.4zm40.1 0h2.4v2.5h-2.4zm40 0h2.4v2.5h-2.4zm40.1 0h2.4v2.5h-2.4zm40.1 0h2.4v2.5h-2.4zm40.1 0h2.4v2.5h-2.4zm40.1 0h2.4v2.5h-2.4zm40 0h2.4v2.5h-2.4zm40.1 0h2.4v2.5h-2.4zm40.1 0h2.4v2.5h-2.4zm40.1 0h2.4v2.5h-2.4zm40.1 0h2.4v2.5h-2.4zm40 0h2.4v2.5h-2.4zm40.1 0h2.4v2.5h-2.4zm40.1 0h2.4v2.5h-2.4zm40.1 0h2.4v2.5h-2.4zm40 0h2.4v2.5h-2.4z"/><path d="m19.1 422.9h2.4v2.5h-2.4zm40.1 0h2.4v2.5h-2.4zm40.1 0h2.4v2.5h-2.4zm40.1 0h2.4v2.5h-2.4zm40 0h2.4v2.5h-2.4zm40.1 0h2.4v2.5h-2.4zm40.1 0h2.4v2.5h-2.4zm40.1 0h2.4v2.5h-2.4zm40.1 0h2.4v2.5h-2.4zm40 0h2.4v2.5h-2.4zm40.1 0h2.4v2.5h-2.4zm40.1 0h2.4v2.5h-2.4zm40.1 0h2.4v2.5h-2.4zm40.1 0h2.4v2.5h-2.4zm40 0h2.4v2.5h-2.4zm40.1 0h2.4v2.5h-2.4zm40.1 0h2.4v2.5h-2.4zm40.1 0h2.4v2.5h-2.4zm40.1 0h2.4v2.5h-2.4zm40 0h2.4v2.5h-2.4zm40.1 0h2.4v2.5h-2.4zm40.1 0h2.4v2.5h-2.4zm40.1 0h2.4v2.5h-2.4zm40 0h2.4v2.5h-2.4z"/><path d="m19.1 462.9h2.4v2.5h-2.4zm40.1 0h2.4v2.5h-2.4zm40.1 0h2.4v2.5h-2.4zm40.1 0h2.4v2.5h-2.4zm40 0h2.4v2.5h-2.4zm40.1 0h2.4v2.5h-2.4zm40.1 0h2.4v2.5h-2.4zm40.1 0h2.4v2.5h-2.4zm40.1 0h2.4v2.5h-2.4zm40 0h2.4v2.5h-2.4zm40.1 0h2.4v2.5h-2.4zm40.1 0h2.4v2.5h-2.4zm40.1 0h2.4v2.5h-2.4zm40.1 0h2.4v2.5h-2.4zm40 0h2.4v2.5h-2.4zm40.1 0h2.4v2.5h-2.4zm40.1 0h2.4v2.5h-2.4zm40.1 0h2.4v2.5h-2.4zm40.1 0h2.4v2.5h-2.4zm40 0h2.4v2.5h-2.4zm40.1 0h2.4v2.5h-2.4zm40.1 0h2.4v2.5h-2.4zm40.1 0h2.4v2.5h-2.4zm40 0h2.4v2.5h-2.4z"/><path d="m19.1 503h2.4v2.5h-2.4zm40.1 0h2.4v2.5h-2.4zm40.1 0h2.4v2.5h-2.4zm40.1 0h2.4v2.5h-2.4zm40 0h2.4v2.5h-2.4zm40.1 0h2.4v2.5h-2.4zm40.1 0h2.4v2.5h-2.4zm40.1 0h2.4v2.5h-2.4zm40.1 0h2.4v2.5h-2.4zm40 0h2.4v2.5h-2.4zm40.1 0h2.4v2.5h-2.4zm40.1 0h2.4v2.5h-2.4zm40.1 0h2.4v2.5h-2.4zm40.1 0h2.4v2.5h-2.4zm40 0h2.4v2.5h-2.4zm40.1 0h2.4v2.5h-2.4zm40.1 0h2.4v2.5h-2.4zm40.1 0h2.4v2.5h-2.4zm40.1 0h2.4v2.5h-2.4zm40 0h2.4v2.5h-2.4zm40.1 0h2.4v2.5h-2.4zm40.1 0h2.4v2.5h-2.4zm40.1 0h2.4v2.5h-2.4zm40 0h2.4v2.5h-2.4z"/><path d="m19.1 543.1h2.4v2.5h-2.4zm40.1 0h2.4v2.5h-2.4zm40.1 0h2.4v2.5h-2.4zm40.1 0h2.4v2.5h-2.4zm40 0h2.4v2.5h-2.4zm40.1 0h2.4v2.5h-2.4zm40.1 0h2.4v2.5h-2.4zm40.1 0h2.4v2.5h-2.4zm40.1 0h2.4v2.5h-2.4zm40 0h2.4v2.5h-2.4zm40.1 0h2.4v2.5h-2.4zm40.1 0h2.4v2.5h-2.4zm40.1 0h2.4v2.5h-2.4zm40.1 0h2.4v2.5h-2.4zm40 0h2.4v2.5h-2.4zm40.1 0h2.4v2.5h-2.4zm40.1 0h2.4v2.5h-2.4zm40.1 0h2.4v2.5h-2.4zm40.1 0h2.4v2.5h-2.4zm40 0h2.4v2.5h-2.4zm40.1 0h2.4v2.5h-2.4zm40.1 0h2.4v2.5h-2.4zm40.1 0h2.4v2.5h-2.4zm40 0h2.4v2.5h-2.4z"/><path d="m19.1 583.2h2.4v2.5h-2.4zm40.1 0h2.4v2.5h-2.4zm40.1 0h2.4v2.5h-2.4zm40.1 0h2.4v2.5h-2.4zm40 0h2.4v2.5h-2.4zm40.1 0h2.4v2.5h-2.4zm40.1 0h2.4v2.5h-2.4zm40.1 0h2.4v2.5h-2.4zm40.1 0h2.4v2.5h-2.4zm40 0h2.4v2.5h-2.4zm40.1 0h2.4v2.5h-2.4zm40.1 0h2.4v2.5h-2.4zm40.1 0h2.4v2.5h-2.4zm40.1 0h2.4v2.5h-2.4zm40 0h2.4v2.5h-2.4zm40.1 0h2.4v2.5h-2.4zm40.1 0h2.4v2.5h-2.4zm40.1 0h2.4v2.5h-2.4zm40.1 0h2.4v2.5h-2.4zm40 0h2.4v2.5h-2.4zm40.1 0h2.4v2.5h-2.4zm40.1 0h2.4v2.5h-2.4zm40.1 0h2.4v2.5h-2.4zm40 0h2.4v2.5h-2.4z"/><path d="m19.1 623.3h2.4v2.5h-2.4zm40.1 0h2.4v2.5h-2.4zm40.1 0h2.4v2.5h-2.4zm40.1 0h2.4v2.5h-2.4zm40 0h2.4v2.5h-2.4zm40.1 0h2.4v2.5h-2.4zm40.1 0h2.4v2.5h-2.4zm40.1 0h2.4v2.5h-2.4zm40.1 0h2.4v2.5h-2.4zm40 0h2.4v2.5h-2.4zm40.1 0h2.4v2.5h-2.4zm40.1 0h2.4v2.5h-2.4zm40.1 0h2.4v2.5h-2.4zm40.1 0h2.4v2.5h-2.4zm40 0h2.4v2.5h-2.4zm40.1 0h2.4v2.5h-2.4zm40.1 0h2.4v2.5h-2.4zm40.1 0h2.4v2.5h-2.4zm40.1 0h2.4v2.5h-2.4zm40 0h2.4v2.5h-2.4zm40.1 0h2.4v2.5h-2.4zm40.1 0h2.4v2.5h-2.4zm40.1 0h2.4v2.5h-2.4zm40 0h2.4v2.5h-2.4z"/><path d="m19.1 663.3h2.4v2.5h-2.4zm40.1 0h2.4v2.5h-2.4zm40.1 0h2.4v2.5h-2.4zm40.1 0h2.4v2.5h-2.4zm40 0h2.4v2.5h-2.4zm40.1 0h2.4v2.5h-2.4zm40.1 0h2.4v2.5h-2.4zm40.1 0h2.4v2.5h-2.4zm40.1 0h2.4v2.5h-2.4zm40 0h2.4v2.5h-2.4zm40.1 0h2.4v2.5h-2.4zm40.1 0h2.4v2.5h-2.4zm40.1 0h2.4v2.5h-2.4zm40.1 0h2.4v2.5h-2.4zm40 0h2.4v2.5h-2.4zm40.1 0h2.4v2.5h-2.4zm40.1 0h2.4v2.5h-2.4zm40.1 0h2.4v2.5h-2.4zm40.1 0h2.4v2.5h-2.4zm40 0h2.4v2.5h-2.4zm40.1 0h2.4v2.5h-2.4zm40.1 0h2.4v2.5h-2.4zm40.1 0h2.4v2.5h-2.4zm40 0h2.4v2.5h-2.4z"/><path d="m19.1 703.4h2.4v2.5h-2.4zm40.1 0h2.4v2.5h-2.4zm40.1 0h2.4v2.5h-2.4zm40.1 0h2.4v2.5h-2.4zm40 0h2.4v2.5h-2.4zm40.1 0h2.4v2.5h-2.4zm40.1 0h2.4v2.5h-2.4zm40.1 0h2.4v2.5h-2.4zm40.1 0h2.4v2.5h-2.4zm40 0h2.4v2.5h-2.4zm40.1 0h2.4v2.5h-2.4zm40.1 0h2.4v2.5h-2.4zm40.1 0h2.4v2.5h-2.4zm40.1 0h2.4v2.5h-2.4zm40 0h2.4v2.5h-2.4zm40.1 0h2.4v2.5h-2.4zm40.1 0h2.4v2.5h-2.4zm40.1 0h2.4v2.5h-2.4zm40.1 0h2.4v2.5h-2.4zm40 0h2.4v2.5h-2.4zm40.1 0h2.4v2.5h-2.4zm40.1 0h2.4v2.5h-2.4zm40.1 0h2.4v2.5h-2.4zm40 0h2.4v2.5h-2.4z"/><path d="m19.1 743.5h2.4v2.5h-2.4zm40.1 0h2.4v2.5h-2.4zm40.1 0h2.4v2.5h-2.4zm40.1 0h2.4v2.5h-2.4zm40 0h2.4v2.5h-2.4zm40.1 0h2.4v2.5h-2.4zm40.1 0h2.4v2.5h-2.4zm40.1 0h2.4v2.5h-2.4zm40.1 0h2.4v2.5h-2.4zm40 0h2.4v2.5h-2.4zm40.1 0h2.4v2.5h-2.4zm40.1 0h2.4v2.5h-2.4zm40.1 0h2.4v2.5h-2.4zm40.1 0h2.4v2.5h-2.4zm40 0h2.4v2.5h-2.4zm40.1 0h2.4v2.5h-2.4zm40.1 0h2.4v2.5h-2.4zm40.1 0h2.4v2.5h-2.4zm40.1 0h2.4v2.5h-2.4zm40 0h2.4v2.5h-2.4zm40.1 0h2.4v2.5h-2.4zm40.1 0h2.4v2.5h-2.4zm40.1 0h2.4v2.5h-2.4zm40 0h2.4v2.5h-2.4z"/><path d="m19.1 783.6h2.4v2.5h-2.4zm40.1 0h2.4v2.5h-2.4zm40.1 0h2.4v2.5h-2.4zm40.1 0h2.4v2.5h-2.4zm40 0h2.4v2.5h-2.4zm40.1 0h2.4v2.5h-2.4zm40.1 0h2.4v2.5h-2.4zm40.1 0h2.4v2.5h-2.4zm40.1 0h2.4v2.5h-2.4zm40 0h2.4v2.5h-2.4zm40.1 0h2.4v2.5h-2.4zm40.1 0h2.4v2.5h-2.4zm40.1 0h2.4v2.5h-2.4zm40.1 0h2.4v2.5h-2.4zm40 0h2.4v2.5h-2.4zm40.1 0h2.4v2.5h-2.4zm40.1 0h2.4v2.5h-2.4zm40.1 0h2.4v2.5h-2.4zm40.1 0h2.4v2.5h-2.4zm40 0h2.4v2.5h-2.4zm40.1 0h2.4v2.5h-2.4zm40.1 0h2.4v2.5h-2.4zm40.1 0h2.4v2.5h-2.4zm40 0h2.4v2.5h-2.4z"/><path d="m19.1 823.7h2.4v2.5h-2.4zm40.1 0h2.4v2.5h-2.4zm40.1 0h2.4v2.5h-2.4zm40.1 0h2.4v2.5h-2.4zm40 0h2.4v2.5h-2.4zm40.1 0h2.4v2.5h-2.4zm40.1 0h2.4v2.5h-2.4zm40.1 0h2.4v2.5h-2.4zm40.1 0h2.4v2.5h-2.4zm40 0h2.4v2.5h-2.4zm40.1 0h2.4v2.5h-2.4zm40.1 0h2.4v2.5h-2.4zm40.1 0h2.4v2.5h-2.4zm40.1 0h2.4v2.5h-2.4zm40 0h2.4v2.5h-2.4zm40.1 0h2.4v2.5h-2.4zm40.1 0h2.4v2.5h-2.4zm40.1 0h2.4v2.5h-2.4zm40.1 0h2.4v2.5h-2.4zm40 0h2.4v2.5h-2.4zm40.1 0h2.4v2.5h-2.4zm40.1 0h2.4v2.5h-2.4zm40.1 0h2.4v2.5h-2.4zm40 0h2.4v2.5h-2.4z"/><path d="m19.1 863.7h2.4v2.5h-2.4zm40.1 0h2.4v2.5h-2.4zm40.1 0h2.4v2.5h-2.4zm40.1 0h2.4v2.5h-2.4zm40 0h2.4v2.5h-2.4zm40.1 0h2.4v2.5h-2.4zm40.1 0h2.4v2.5h-2.4zm40.1 0h2.4v2.5h-2.4zm40.1 0h2.4v2.5h-2.4zm40 0h2.4v2.5h-2.4zm40.1 0h2.4v2.5h-2.4zm40.1 0h2.4v2.5h-2.4zm40.1 0h2.4v2.5h-2.4zm40.1 0h2.4v2.5h-2.4zm40 0h2.4v2.5h-2.4zm40.1 0h2.4v2.5h-2.4zm40.1 0h2.4v2.5h-2.4zm40.1 0h2.4v2.5h-2.4zm40.1 0h2.4v2.5h-2.4zm40 0h2.4v2.5h-2.4zm40.1 0h2.4v2.5h-2.4zm40.1 0h2.4v2.5h-2.4zm40.1 0h2.4v2.5h-2.4zm40 0h2.4v2.5h-2.4z"/><path d="m19.1 903.8h2.4v2.5h-2.4zm40.1 0h2.4v2.5h-2.4zm40.1 0h2.4v2.5h-2.4zm40.1 0h2.4v2.5h-2.4zm40 0h2.4v2.5h-2.4zm40.1 0h2.4v2.5h-2.4zm40.1 0h2.4v2.5h-2.4zm40.1 0h2.4v2.5h-2.4zm40.1 0h2.4v2.5h-2.4zm40 0h2.4v2.5h-2.4zm40.1 0h2.4v2.5h-2.4zm40.1 0h2.4v2.5h-2.4zm40.1 0h2.4v2.5h-2.4zm40.1 0h2.4v2.5h-2.4zm40 0h2.4v2.5h-2.4zm40.1 0h2.4v2.5h-2.4zm40.1 0h2.4v2.5h-2.4zm40.1 0h2.4v2.5h-2.4zm40.1 0h2.4v2.5h-2.4zm40 0h2.4v2.5h-2.4zm40.1 0h2.4v2.5h-2.4zm40.1 0h2.4v2.5h-2.4zm40.1 0h2.4v2.5h-2.4zm40 0h2.4v2.5h-2.4z"/><path d="m19.1 943.9h2.4v2.5h-2.4zm40.1 0h2.4v2.5h-2.4zm40.1 0h2.4v2.5h-2.4zm40.1 0h2.4v2.5h-2.4zm40 0h2.4v2.5h-2.4zm40.1 0h2.4v2.5h-2.4zm40.1 0h2.4v2.5h-2.4zm40.1 0h2.4v2.5h-2.4zm40.1 0h2.4v2.5h-2.4zm40 0h2.4v2.5h-2.4zm40.1 0h2.4v2.5h-2.4zm40.1 0h2.4v2.5h-2.4zm40.1 0h2.4v2.5h-2.4zm40.1 0h2.4v2.5h-2.4zm40 0h2.4v2.5h-2.4zm40.1 0h2.4v2.5h-2.4zm40.1 0h2.4v2.5h-2.4zm40.1 0h2.4v2.5h-2.4zm40.1 0h2.4v2.5h-2.4zm40 0h2.4v2.5h-2.4zm40.1 0h2.4v2.5h-2.4zm40.1 0h2.4v2.5h-2.4zm40.1 0h2.4v2.5h-2.4zm40 0h2.4v2.5h-2.4z"/></g><path d="m8.8 8.1h2.5v2.5h-2.5zm41.3 0h2.5v2.5h-2.5zm41.2 0h2.5v2.5h-2.5zm41.3 0h2.5v2.5h-2.5zm41.3 0h2.5v2.5h-2.5zm41.3 0h2.5v2.5h-2.5zm41.3 0h2.5v2.5h-2.5zm41.3 0h2.5v2.5h-2.5zm41.3 0h2.5v2.5h-2.5zm41.3 0h2.5v2.5h-2.5zm41.3 0h2.5v2.5h-2.5zm41.3 0h2.5v2.5h-2.5zm41.3 0h2.5v2.5h-2.5zm41.3 0h2.5v2.5h-2.5zm41.3 0h2.5v2.5h-2.5zm41.3 0h2.5v2.5h-2.5zm41.3 0h2.5v2.5h-2.5zm41.3 0h2.5v2.5h-2.5zm41.3 0h2.5v2.5h-2.5zm41.2 0h2.5v2.5h-2.5zm41.3 0h2.5v2.5h-2.5zm41.3 0h2.5v2.5h-2.5zm41.3 0h2.5v2.5h-2.5zm41.3 0h2.5v2.5h-2.5z" fill="#ddd"/><path d="m8.8 49.4h2.5v2.5h-2.5zm41.3 0h2.5v2.5h-2.5zm41.2 0h2.5v2.5h-2.5zm41.3 0h2.5v2.5h-2.5zm41.3 0h2.5v2.5h-2.5zm41.3 0h2.5v2.5h-2.5zm41.3 0h2.5v2.5h-2.5zm41.3 0h2.5v2.5h-2.5zm41.3 0h2.5v2.5h-2.5zm41.3 0h2.5v2.5h-2.5zm41.3 0h2.5v2.5h-2.5zm41.3 0h2.5v2.5h-2.5zm41.3 0h2.5v2.5h-2.5zm41.3 0h2.5v2.5h-2.5zm41.3 0h2.5v2.5h-2.5zm41.3 0h2.5v2.5h-2.5zm41.3 0h2.5v2.5h-2.5zm41.3 0h2.5v2.5h-2.5zm41.3 0h2.5v2.5h-2.5zm41.2 0h2.5v2.5h-2.5zm41.3 0h2.5v2.5h-2.5zm41.3 0h2.5v2.5h-2.5zm41.3 0h2.5v2.5h-2.5zm41.3 0h2.5v2.5h-2.5z" fill="#ddd"/><path d="m8.8 90.7h2.5v2.5h-2.5zm41.3 0h2.5v2.5h-2.5zm41.2 0h2.5v2.5h-2.5zm41.3 0h2.5v2.5h-2.5zm41.3 0h2.5v2.5h-2.5zm41.3 0h2.5v2.5h-2.5zm41.3 0h2.5v2.5h-2.5zm41.3 0h2.5v2.5h-2.5zm41.3 0h2.5v2.5h-2.5zm41.3 0h2.5v2.5h-2.5zm41.3 0h2.5v2.5h-2.5zm41.3 0h2.5v2.5h-2.5zm41.3 0h2.5v2.5h-2.5zm41.3 0h2.5v2.5h-2.5zm41.3 0h2.5v2.5h-2.5zm41.3 0h2.5v2.5h-2.5zm41.3 0h2.5v2.5h-2.5zm41.3 0h2.5v2.5h-2.5zm41.3 0h2.5v2.5h-2.5zm41.2 0h2.5v2.5h-2.5zm41.3 0h2.5v2.5h-2.5zm41.3 0h2.5v2.5h-2.5zm41.3 0h2.5v2.5h-2.5zm41.3 0h2.5v2.5h-2.5z" fill="#ddd"/><path d="m8.8 132h2.5v2.5h-2.5zm41.3 0h2.5v2.5h-2.5zm41.2 0h2.5v2.5h-2.5zm41.3 0h2.5v2.5h-2.5zm41.3 0h2.5v2.5h-2.5zm41.3 0h2.5v2.5h-2.5zm41.3 0h2.5v2.5h-2.5zm41.3 0h2.5v2.5h-2.5zm41.3 0h2.5v2.5h-2.5zm41.3 0h2.5v2.5h-2.5zm41.3 0h2.5v2.5h-2.5zm41.3 0h2.5v2.5h-2.5zm41.3 0h2.5v2.5h-2.5zm41.3 0h2.5v2.5h-2.5zm41.3 0h2.5v2.5h-2.5zm41.3 0h2.5v2.5h-2.5zm41.3 0h2.5v2.5h-2.5zm41.3 0h2.5v2.5h-2.5zm41.3 0h2.5v2.5h-2.5zm41.2 0h2.5v2.5h-2.5zm41.3 0h2.5v2.5h-2.5zm41.3 0h2.5v2.5h-2.5zm41.3 0h2.5v2.5h-2.5zm41.3 0h2.5v2.5h-2.5z" fill="#ddd"/><path d="m8.8 173.3h2.5v2.5h-2.5zm41.3 0h2.5v2.5h-2.5zm41.2 0h2.5v2.5h-2.5zm41.3 0h2.5v2.5h-2.5zm41.3 0h2.5v2.5h-2.5zm41.3 0h2.5v2.5h-2.5zm41.3 0h2.5v2.5h-2.5zm41.3 0h2.5v2.5h-2.5zm41.3 0h2.5v2.5h-2.5zm41.3 0h2.5v2.5h-2.5zm41.3 0h2.5v2.5h-2.5zm41.3 0h2.5v2.5h-2.5zm41.3 0h2.5v2.5h-2.5zm41.3 0h2.5v2.5h-2.5zm41.3 0h2.5v2.5h-2.5zm41.3 0h2.5v2.5h-2.5zm41.3 0h2.5v2.5h-2.5zm41.3 0h2.5v2.5h-2.5zm41.3 0h2.5v2.5h-2.5zm41.2 0h2.5v2.5h-2.5zm41.3 0h2.5v2.5h-2.5zm41.3 0h2.5v2.5h-2.5zm41.3 0h2.5v2.5h-2.5zm41.3 0h2.5v2.5h-2.5z" fill="#ddd"/><path d="m8.8 214.6h2.5v2.5h-2.5zm41.3 0h2.5v2.5h-2.5zm41.2 0h2.5v2.5h-2.5zm41.3 0h2.5v2.5h-2.5zm41.3 0h2.5v2.5h-2.5zm41.3 0h2.5v2.5h-2.5zm41.3 0h2.5v2.5h-2.5zm41.3 0h2.5v2.5h-2.5zm41.3 0h2.5v2.5h-2.5zm41.3 0h2.5v2.5h-2.5zm41.3 0h2.5v2.5h-2.5zm41.3 0h2.5v2.5h-2.5zm41.3 0h2.5v2.5h-2.5zm41.3 0h2.5v2.5h-2.5zm41.3 0h2.5v2.5h-2.5zm41.3 0h2.5v2.5h-2.5zm41.3 0h2.5v2.5h-2.5zm41.3 0h2.5v2.5h-2.5zm41.3 0h2.5v2.5h-2.5zm41.2 0h2.5v2.5h-2.5zm41.3 0h2.5v2.5h-2.5zm41.3 0h2.5v2.5h-2.5zm41.3 0h2.5v2.5h-2.5zm41.3 0h2.5v2.5h-2.5z" fill="#ddd"/><path d="m8.8 255.9h2.5v2.5h-2.5zm41.3 0h2.5v2.5h-2.5zm41.2 0h2.5v2.5h-2.5zm41.3 0h2.5v2.5h-2.5zm41.3 0h2.5v2.5h-2.5zm41.3 0h2.5v2.5h-2.5zm41.3 0h2.5v2.5h-2.5zm41.3 0h2.5v2.5h-2.5zm41.3 0h2.5v2.5h-2.5zm41.3 0h2.5v2.5h-2.5zm41.3 0h2.5v2.5h-2.5zm41.3 0h2.5v2.5h-2.5zm41.3 0h2.5v2.5h-2.5zm41.3 0h2.5v2.5h-2.5zm41.3 0h2.5v2.5h-2.5zm41.3 0h2.5v2.5h-2.5zm41.3 0h2.5v2.5h-2.5zm41.3 0h2.5v2.5h-2.5zm41.3 0h2.5v2.5h-2.5zm41.2 0h2.5v2.5h-2.5zm41.3 0h2.5v2.5h-2.5zm41.3 0h2.5v2.5h-2.5zm41.3 0h2.5v2.5h-2.5zm41.3 0h2.5v2.5h-2.5z" fill="#ddd"/><path d="m8.8 297.2h2.5v2.5h-2.5zm41.3 0h2.5v2.5h-2.5zm41.2 0h2.5v2.5h-2.5zm41.3 0h2.5v2.5h-2.5zm41.3 0h2.5v2.5h-2.5zm41.3 0h2.5v2.5h-2.5zm41.3 0h2.5v2.5h-2.5zm41.3 0h2.5v2.5h-2.5zm41.3 0h2.5v2.5h-2.5zm41.3 0h2.5v2.5h-2.5zm41.3 0h2.5v2.5h-2.5zm41.3 0h2.5v2.5h-2.5zm41.3 0h2.5v2.5h-2.5zm41.3 0h2.5v2.5h-2.5zm41.3 0h2.5v2.5h-2.5zm41.3 0h2.5v2.5h-2.5zm41.3 0h2.5v2.5h-2.5zm41.3 0h2.5v2.5h-2.5zm41.3 0h2.5v2.5h-2.5zm41.2 0h2.5v2.5h-2.5zm41.3 0h2.5v2.5h-2.5zm41.3 0h2.5v2.5h-2.5zm41.3 0h2.5v2.5h-2.5zm41.3 0h2.5v2.5h-2.5z" fill="#ddd"/><path d="m8.8 338.5h2.5v2.5h-2.5zm41.3 0h2.5v2.5h-2.5zm41.2 0h2.5v2.5h-2.5zm41.3 0h2.5v2.5h-2.5zm41.3 0h2.5v2.5h-2.5zm41.3 0h2.5v2.5h-2.5zm41.3 0h2.5v2.5h-2.5zm41.3 0h2.5v2.5h-2.5zm41.3 0h2.5v2.5h-2.5zm41.3 0h2.5v2.5h-2.5zm41.3 0h2.5v2.5h-2.5zm41.3 0h2.5v2.5h-2.5zm41.3 0h2.5v2.5h-2.5zm41.3 0h2.5v2.5h-2.5zm41.3 0h2.5v2.5h-2.5zm41.3 0h2.5v2.5h-2.5zm41.3 0h2.5v2.5h-2.5zm41.3 0h2.5v2.5h-2.5zm41.3 0h2.5v2.5h-2.5zm41.2 0h2.5v2.5h-2.5zm41.3 0h2.5v2.5h-2.5zm41.3 0h2.5v2.5h-2.5zm41.3 0h2.5v2.5h-2.5zm41.3 0h2.5v2.5h-2.5z" fill="#ddd"/><path d="m8.8 379.8h2.5v2.5h-2.5zm41.3 0h2.5v2.5h-2.5zm41.2 0h2.5v2.5h-2.5zm41.3 0h2.5v2.5h-2.5zm41.3 0h2.5v2.5h-2.5zm41.3 0h2.5v2.5h-2.5zm41.3 0h2.5v2.5h-2.5zm41.3 0h2.5v2.5h-2.5zm41.3 0h2.5v2.5h-2.5zm41.3 0h2.5v2.5h-2.5zm41.3 0h2.5v2.5h-2.5zm41.3 0h2.5v2.5h-2.5zm41.3 0h2.5v2.5h-2.5zm41.3 0h2.5v2.5h-2.5zm41.3 0h2.5v2.5h-2.5zm41.3 0h2.5v2.5h-2.5zm41.3 0h2.5v2.5h-2.5zm41.3 0h2.5v2.5h-2.5zm41.3 0h2.5v2.5h-2.5zm41.2 0h2.5v2.5h-2.5zm41.3 0h2.5v2.5h-2.5zm41.3 0h2.5v2.5h-2.5zm41.3 0h2.5v2.5h-2.5zm41.3 0h2.5v2.5h-2.5z" fill="#ddd"/><path d="m8.8 421h2.5v2.5h-2.5zm41.3 0h2.5v2.5h-2.5zm41.2 0h2.5v2.5h-2.5zm41.3 0h2.5v2.5h-2.5zm41.3 0h2.5v2.5h-2.5zm41.3 0h2.5v2.5h-2.5zm41.3 0h2.5v2.5h-2.5zm41.3 0h2.5v2.5h-2.5zm41.3 0h2.5v2.5h-2.5zm41.3 0h2.5v2.5h-2.5zm41.3 0h2.5v2.5h-2.5zm41.3 0h2.5v2.5h-2.5zm41.3 0h2.5v2.5h-2.5zm41.3 0h2.5v2.5h-2.5zm41.3 0h2.5v2.5h-2.5zm41.3 0h2.5v2.5h-2.5zm41.3 0h2.5v2.5h-2.5zm41.3 0h2.5v2.5h-2.5zm41.3 0h2.5v2.5h-2.5zm41.2 0h2.5v2.5h-2.5zm41.3 0h2.5v2.5h-2.5zm41.3 0h2.5v2.5h-2.5zm41.3 0h2.5v2.5h-2.5zm41.3 0h2.5v2.5h-2.5z" fill="#ddd"/><path d="m8.8 462.3h2.5v2.5h-2.5zm41.3 0h2.5v2.5h-2.5zm41.2 0h2.5v2.5h-2.5zm41.3 0h2.5v2.5h-2.5zm41.3 0h2.5v2.5h-2.5zm41.3 0h2.5v2.5h-2.5zm41.3 0h2.5v2.5h-2.5zm41.3 0h2.5v2.5h-2.5zm41.3 0h2.5v2.5h-2.5zm41.3 0h2.5v2.5h-2.5zm41.3 0h2.5v2.5h-2.5zm41.3 0h2.5v2.5h-2.5zm41.3 0h2.5v2.5h-2.5zm41.3 0h2.5v2.5h-2.5zm41.3 0h2.5v2.5h-2.5zm41.3 0h2.5v2.5h-2.5zm41.3 0h2.5v2.5h-2.5zm41.3 0h2.5v2.5h-2.5zm41.3 0h2.5v2.5h-2.5zm41.2 0h2.5v2.5h-2.5zm41.3 0h2.5v2.5h-2.5zm41.3 0h2.5v2.5h-2.5zm41.3 0h2.5v2.5h-2.5zm41.3 0h2.5v2.5h-2.5z" fill="#ddd"/><path d="m8.8 503.6h2.5v2.5h-2.5zm41.3 0h2.5v2.5h-2.5zm41.2 0h2.5v2.5h-2.5zm41.3 0h2.5v2.5h-2.5zm41.3 0h2.5v2.5h-2.5zm41.3 0h2.5v2.5h-2.5zm41.3 0h2.5v2.5h-2.5zm41.3 0h2.5v2.5h-2.5zm41.3 0h2.5v2.5h-2.5zm41.3 0h2.5v2.5h-2.5zm41.3 0h2.5v2.5h-2.5zm41.3 0h2.5v2.5h-2.5zm41.3 0h2.5v2.5h-2.5zm41.3 0h2.5v2.5h-2.5zm41.3 0h2.5v2.5h-2.5zm41.3 0h2.5v2.5h-2.5zm41.3 0h2.5v2.5h-2.5zm41.3 0h2.5v2.5h-2.5zm41.3 0h2.5v2.5h-2.5zm41.2 0h2.5v2.5h-2.5zm41.3 0h2.5v2.5h-2.5zm41.3 0h2.5v2.5h-2.5zm41.3 0h2.5v2.5h-2.5zm41.3 0h2.5v2.5h-2.5z" fill="#ddd"/><path d="m8.8 544.9h2.5v2.5h-2.5zm41.3 0h2.5v2.5h-2.5zm41.2 0h2.5v2.5h-2.5zm41.3 0h2.5v2.5h-2.5zm41.3 0h2.5v2.5h-2.5zm41.3 0h2.5v2.5h-2.5zm41.3 0h2.5v2.5h-2.5zm41.3 0h2.5v2.5h-2.5zm41.3 0h2.5v2.5h-2.5zm41.3 0h2.5v2.5h-2.5zm41.3 0h2.5v2.5h-2.5zm41.3 0h2.5v2.5h-2.5zm41.3 0h2.5v2.5h-2.5zm41.3 0h2.5v2.5h-2.5zm41.3 0h2.5v2.5h-2.5zm41.3 0h2.5v2.5h-2.5zm41.3 0h2.5v2.5h-2.5zm41.3 0h2.5v2.5h-2.5zm41.3 0h2.5v2.5h-2.5zm41.2 0h2.5v2.5h-2.5zm41.3 0h2.5v2.5h-2.5zm41.3 0h2.5v2.5h-2.5zm41.3 0h2.5v2.5h-2.5zm41.3 0h2.5v2.5h-2.5z" fill="#ddd"/><path d="m8.8 586.2h2.5v2.5h-2.5zm41.3 0h2.5v2.5h-2.5zm41.2 0h2.5v2.5h-2.5zm41.3 0h2.5v2.5h-2.5zm41.3 0h2.5v2.5h-2.5zm41.3 0h2.5v2.5h-2.5zm41.3 0h2.5v2.5h-2.5zm41.3 0h2.5v2.5h-2.5zm41.3 0h2.5v2.5h-2.5zm41.3 0h2.5v2.5h-2.5zm41.3 0h2.5v2.5h-2.5zm41.3 0h2.5v2.5h-2.5zm41.3 0h2.5v2.5h-2.5zm41.3 0h2.5v2.5h-2.5zm41.3 0h2.5v2.5h-2.5zm41.3 0h2.5v2.5h-2.5zm41.3 0h2.5v2.5h-2.5zm41.3 0h2.5v2.5h-2.5zm41.3 0h2.5v2.5h-2.5zm41.2 0h2.5v2.5h-2.5zm41.3 0h2.5v2.5h-2.5zm41.3 0h2.5v2.5h-2.5zm41.3 0h2.5v2.5h-2.5zm41.3 0h2.5v2.5h-2.5z" fill="#ddd"/><path d="m8.8 627.5h2.5v2.5h-2.5zm41.3 0h2.5v2.5h-2.5zm41.2 0h2.5v2.5h-2.5zm41.3 0h2.5v2.5h-2.5zm41.3 0h2.5v2.5h-2.5zm41.3 0h2.5v2.5h-2.5zm41.3 0h2.5v2.5h-2.5zm41.3 0h2.5v2.5h-2.5zm41.3 0h2.5v2.5h-2.5zm41.3 0h2.5v2.5h-2.5zm41.3 0h2.5v2.5h-2.5zm41.3 0h2.5v2.5h-2.5zm41.3 0h2.5v2.5h-2.5zm41.3 0h2.5v2.5h-2.5zm41.3 0h2.5v2.5h-2.5zm41.3 0h2.5v2.5h-2.5zm41.3 0h2.5v2.5h-2.5zm41.3 0h2.5v2.5h-2.5zm41.3 0h2.5v2.5h-2.5zm41.2 0h2.5v2.5h-2.5zm41.3 0h2.5v2.5h-2.5zm41.3 0h2.5v2.5h-2.5zm41.3 0h2.5v2.5h-2.5zm41.3 0h2.5v2.5h-2.5z" fill="#ddd"/><path d="m8.8 668.8h2.5v2.5h-2.5zm41.3 0h2.5v2.5h-2.5zm41.2 0h2.5v2.5h-2.5zm41.3 0h2.5v2.5h-2.5zm41.3 0h2.5v2.5h-2.5zm41.3 0h2.5v2.5h-2.5zm41.3 0h2.5v2.5h-2.5zm41.3 0h2.5v2.5h-2.5zm41.3 0h2.5v2.5h-2.5zm41.3 0h2.5v2.5h-2.5zm41.3 0h2.5v2.5h-2.5zm41.3 0h2.5v2.5h-2.5zm41.3 0h2.5v2.5h-2.5zm41.3 0h2.5v2.5h-2.5zm41.3 0h2.5v2.5h-2.5zm41.3 0h2.5v2.5h-2.5zm41.3 0h2.5v2.5h-2.5zm41.3 0h2.5v2.5h-2.5zm41.3 0h2.5v2.5h-2.5zm41.2 0h2.5v2.5h-2.5zm41.3 0h2.5v2.5h-2.5zm41.3 0h2.5v2.5h-2.5zm41.3 0h2.5v2.5h-2.5zm41.3 0h2.5v2.5h-2.5z" fill="#ddd"/><path d="m8.8 710.1h2.5v2.5h-2.5zm41.3 0h2.5v2.5h-2.5zm41.2 0h2.5v2.5h-2.5zm41.3 0h2.5v2.5h-2.5zm41.3 0h2.5v2.5h-2.5zm41.3 0h2.5v2.5h-2.5zm41.3 0h2.5v2.5h-2.5zm41.3 0h2.5v2.5h-2.5zm41.3 0h2.5v2.5h-2.5zm41.3 0h2.5v2.5h-2.5zm41.3 0h2.5v2.5h-2.5zm41.3 0h2.5v2.5h-2.5zm41.3 0h2.5v2.5h-2.5zm41.3 0h2.5v2.5h-2.5zm41.3 0h2.5v2.5h-2.5zm41.3 0h2.5v2.5h-2.5zm41.3 0h2.5v2.5h-2.5zm41.3 0h2.5v2.5h-2.5zm41.3 0h2.5v2.5h-2.5zm41.2 0h2.5v2.5h-2.5zm41.3 0h2.5v2.5h-2.5zm41.3 0h2.5v2.5h-2.5zm41.3 0h2.5v2.5h-2.5zm41.3 0h2.5v2.5h-2.5z" fill="#ddd"/><path d="m8.8 751.4h2.5v2.5h-2.5zm41.3 0h2.5v2.5h-2.5zm41.2 0h2.5v2.5h-2.5zm41.3 0h2.5v2.5h-2.5zm41.3 0h2.5v2.5h-2.5zm41.3 0h2.5v2.5h-2.5zm41.3 0h2.5v2.5h-2.5zm41.3 0h2.5v2.5h-2.5zm41.3 0h2.5v2.5h-2.5zm41.3 0h2.5v2.5h-2.5zm41.3 0h2.5v2.5h-2.5zm41.3 0h2.5v2.5h-2.5zm41.3 0h2.5v2.5h-2.5zm41.3 0h2.5v2.5h-2.5zm41.3 0h2.5v2.5h-2.5zm41.3 0h2.5v2.5h-2.5zm41.3 0h2.5v2.5h-2.5zm41.3 0h2.5v2.5h-2.5zm41.3 0h2.5v2.5h-2.5zm41.2 0h2.5v2.5h-2.5zm41.3 0h2.5v2.5h-2.5zm41.3 0h2.5v2.5h-2.5zm41.3 0h2.5v2.5h-2.5zm41.3 0h2.5v2.5h-2.5z" fill="#ddd"/><path d="m8.8 792.7h2.5v2.5h-2.5zm41.3 0h2.5v2.5h-2.5zm41.2 0h2.5v2.5h-2.5zm41.3 0h2.5v2.5h-2.5zm41.3 0h2.5v2.5h-2.5zm41.3 0h2.5v2.5h-2.5zm41.3 0h2.5v2.5h-2.5zm41.3 0h2.5v2.5h-2.5zm41.3 0h2.5v2.5h-2.5zm41.3 0h2.5v2.5h-2.5zm41.3 0h2.5v2.5h-2.5zm41.3 0h2.5v2.5h-2.5zm41.3 0h2.5v2.5h-2.5zm41.3 0h2.5v2.5h-2.5zm41.3 0h2.5v2.5h-2.5zm41.3 0h2.5v2.5h-2.5zm41.3 0h2.5v2.5h-2.5zm41.3 0h2.5v2.5h-2.5zm41.3 0h2.5v2.5h-2.5zm41.2 0h2.5v2.5h-2.5zm41.3 0h2.5v2.5h-2.5zm41.3 0h2.5v2.5h-2.5zm41.3 0h2.5v2.5h-2.5zm41.3 0h2.5v2.5h-2.5z" fill="#ddd"/><path d="m8.8 834h2.5v2.5h-2.5zm41.3 0h2.5v2.5h-2.5zm41.2 0h2.5v2.5h-2.5zm41.3 0h2.5v2.5h-2.5zm41.3 0h2.5v2.5h-2.5zm41.3 0h2.5v2.5h-2.5zm41.3 0h2.5v2.5h-2.5zm41.3 0h2.5v2.5h-2.5zm41.3 0h2.5v2.5h-2.5zm41.3 0h2.5v2.5h-2.5zm41.3 0h2.5v2.5h-2.5zm41.3 0h2.5v2.5h-2.5zm41.3 0h2.5v2.5h-2.5zm41.3 0h2.5v2.5h-2.5zm41.3 0h2.5v2.5h-2.5zm41.3 0h2.5v2.5h-2.5zm41.3 0h2.5v2.5h-2.5zm41.3 0h2.5v2.5h-2.5zm41.3 0h2.5v2.5h-2.5zm41.2 0h2.5v2.5h-2.5zm41.3 0h2.5v2.5h-2.5zm41.3 0h2.5v2.5h-2.5zm41.3 0h2.5v2.5h-2.5zm41.3 0h2.5v2.5h-2.5z" fill="#ddd"/><path d="m8.8 875.3h2.5v2.5h-2.5zm41.3 0h2.5v2.5h-2.5zm41.2 0h2.5v2.5h-2.5zm41.3 0h2.5v2.5h-2.5zm41.3 0h2.5v2.5h-2.5zm41.3 0h2.5v2.5h-2.5zm41.3 0h2.5v2.5h-2.5zm41.3 0h2.5v2.5h-2.5zm41.3 0h2.5v2.5h-2.5zm41.3 0h2.5v2.5h-2.5zm41.3 0h2.5v2.5h-2.5zm41.3 0h2.5v2.5h-2.5zm41.3 0h2.5v2.5h-2.5zm41.3 0h2.5v2.5h-2.5zm41.3 0h2.5v2.5h-2.5zm41.3 0h2.5v2.5h-2.5zm41.3 0h2.5v2.5h-2.5zm41.3 0h2.5v2.5h-2.5zm41.3 0h2.5v2.5h-2.5zm41.2 0h2.5v2.5h-2.5zm41.3 0h2.5v2.5h-2.5zm41.3 0h2.5v2.5h-2.5zm41.3 0h2.5v2.5h-2.5zm41.3 0h2.5v2.5h-2.5z" fill="#ddd"/><path d="m8.8 916.6h2.5v2.5h-2.5zm41.3 0h2.5v2.5h-2.5zm41.2 0h2.5v2.5h-2.5zm41.3 0h2.5v2.5h-2.5zm41.3 0h2.5v2.5h-2.5zm41.3 0h2.5v2.5h-2.5zm41.3 0h2.5v2.5h-2.5zm41.3 0h2.5v2.5h-2.5zm41.3 0h2.5v2.5h-2.5zm41.3 0h2.5v2.5h-2.5zm41.3 0h2.5v2.5h-2.5zm41.3 0h2.5v2.5h-2.5zm41.3 0h2.5v2.5h-2.5zm41.3 0h2.5v2.5h-2.5zm41.3 0h2.5v2.5h-2.5zm41.3 0h2.5v2.5h-2.5zm41.3 0h2.5v2.5h-2.5zm41.3 0h2.5v2.5h-2.5zm41.3 0h2.5v2.5h-2.5zm41.2 0h2.5v2.5h-2.5zm41.3 0h2.5v2.5h-2.5zm41.3 0h2.5v2.5h-2.5zm41.3 0h2.5v2.5h-2.5zm41.3 0h2.5v2.5h-2.5z" fill="#ddd"/><path d="m8.8 957.9h2.5v2.5h-2.5zm41.3 0h2.5v2.5h-2.5zm41.2 0h2.5v2.5h-2.5zm41.3 0h2.5v2.5h-2.5zm41.3 0h2.5v2.5h-2.5zm41.3 0h2.5v2.5h-2.5zm41.3 0h2.5v2.5h-2.5zm41.3 0h2.5v2.5h-2.5zm41.3 0h2.5v2.5h-2.5zm41.3 0h2.5v2.5h-2.5zm41.3 0h2.5v2.5h-2.5zm41.3 0h2.5v2.5h-2.5zm41.3 0h2.5v2.5h-2.5zm41.3 0h2.5v2.5h-2.5zm41.3 0h2.5v2.5h-2.5zm41.3 0h2.5v2.5h-2.5zm41.3 0h2.5v2.5h-2.5zm41.3 0h2.5v2.5h-2.5zm41.3 0h2.5v2.5h-2.5zm41.2 0h2.5v2.5h-2.5zm41.3 0h2.5v2.5h-2.5zm41.3 0h2.5v2.5h-2.5zm41.3 0h2.5v2.5h-2.5zm41.3 0h2.5v2.5h-2.5z" fill="#ddd"/><path d="m976.6 22.1h2.4v2.5h-2.4zm40.1 0h2.4v2.5h-2.4zm40.1 0h2.4v2.5h-2.4zm40.1 0h2.4v2.5h-2.4zm40.1 0h2.4v2.5h-2.4zm40 0h2.4v2.5h-2.4zm40.1 0h2.4v2.5h-2.4zm40.1 0h2.4v2.5h-2.4zm40.1 0h2.4v2.5h-2.4zm40.1 0h2.4v2.5h-2.4zm40 0h2.4v2.5h-2.4zm40.1 0h2.4v2.5h-2.4zm40.1 0h2.4v2.5h-2.4zm40.1 0h2.4v2.5h-2.4zm40.1 0h2.4v2.5h-2.4zm40 0h2.4v2.5h-2.4zm40.1 0h2.4v2.5h-2.4zm40.1 0h2.4v2.5h-2.4zm40.1 0h2.4v2.5h-2.4zm40.1 0h2.4v2.5h-2.4zm40 0h2.4v2.5h-2.4zm40.1 0h2.4v2.5h-2.4zm40.1 0h2.4v2.5h-2.4zm40.1 0h2.4v2.5h-2.4z" fill="#ccc"/><path d="m976.6 62.2h2.4v2.5h-2.4zm40.1 0h2.4v2.5h-2.4zm40.1 0h2.4v2.5h-2.4zm40.1 0h2.4v2.5h-2.4zm40.1 0h2.4v2.5h-2.4zm40 0h2.4v2.5h-2.4zm40.1 0h2.4v2.5h-2.4zm40.1 0h2.4v2.5h-2.4zm40.1 0h2.4v2.5h-2.4zm40.1 0h2.4v2.5h-2.4zm40 0h2.4v2.5h-2.4zm40.1 0h2.4v2.5h-2.4zm40.1 0h2.4v2.5h-2.4zm40.1 0h2.4v2.5h-2.4zm40.1 0h2.4v2.5h-2.4zm40 0h2.4v2.5h-2.4zm40.1 0h2.4v2.5h-2.4zm40.1 0h2.4v2.5h-2.4zm40.1 0h2.4v2.5h-2.4zm40.1 0h2.4v2.5h-2.4zm40 0h2.4v2.5h-2.4zm40.1 0h2.4v2.5h-2.4zm40.1 0h2.4v2.5h-2.4zm40.1 0h2.4v2.5h-2.4z" fill="#ccc"/><path d="m976.6 102.2h2.4v2.5h-2.4zm40.1 0h2.4v2.5h-2.4zm40.1 0h2.4v2.5h-2.4zm40.1 0h2.4v2.5h-2.4zm40.1 0h2.4v2.5h-2.4zm40 0h2.4v2.5h-2.4zm40.1 0h2.4v2.5h-2.4zm40.1 0h2.4v2.5h-2.4zm40.1 0h2.4v2.5h-2.4zm40.1 0h2.4v2.5h-2.4zm40 0h2.4v2.5h-2.4zm40.1 0h2.4v2.5h-2.4zm40.1 0h2.4v2.5h-2.4zm40.1 0h2.4v2.5h-2.4zm40.1 0h2.4v2.5h-2.4zm40 0h2.4v2.5h-2.4zm40.1 0h2.4v2.5h-2.4zm40.1 0h2.4v2.5h-2.4zm40.1 0h2.4v2.5h-2.4zm40.1 0h2.4v2.5h-2.4zm40 0h2.4v2.5h-2.4zm40.1 0h2.4v2.5h-2.4zm40.1 0h2.4v2.5h-2.4zm40.1 0h2.4v2.5h-2.4z" fill="#ccc"/><path d="m976.6 142.3h2.4v2.5h-2.4zm40.1 0h2.4v2.5h-2.4zm40.1 0h2.4v2.5h-2.4zm40.1 0h2.4v2.5h-2.4zm40.1 0h2.4v2.5h-2.4zm40 0h2.4v2.5h-2.4zm40.1 0h2.4v2.5h-2.4zm40.1 0h2.4v2.5h-2.4zm40.1 0h2.4v2.5h-2.4zm40.1 0h2.4v2.5h-2.4zm40 0h2.4v2.5h-2.4zm40.1 0h2.4v2.5h-2.4zm40.1 0h2.4v2.5h-2.4zm40.1 0h2.4v2.5h-2.4zm40.1 0h2.4v2.5h-2.4zm40 0h2.4v2.5h-2.4zm40.1 0h2.4v2.5h-2.4zm40.1 0h2.4v2.5h-2.4zm40.1 0h2.4v2.5h-2.4zm40.1 0h2.4v2.5h-2.4zm40 0h2.4v2.5h-2.4zm40.1 0h2.4v2.5h-2.4zm40.1 0h2.4v2.5h-2.4zm40.1 0h2.4v2.5h-2.4z" fill="#ccc"/><path d="m976.6 182.4h2.4v2.5h-2.4zm40.1 0h2.4v2.5h-2.4zm40.1 0h2.4v2.5h-2.4zm40.1 0h2.4v2.5h-2.4zm40.1 0h2.4v2.5h-2.4zm40 0h2.4v2.5h-2.4zm40.1 0h2.4v2.5h-2.4zm40.1 0h2.4v2.5h-2.4zm40.1 0h2.4v2.5h-2.4zm40.1 0h2.4v2.5h-2.4zm40 0h2.4v2.5h-2.4zm40.1 0h2.4v2.5h-2.4zm40.1 0h2.4v2.5h-2.4zm40.1 0h2.4v2.5h-2.4zm40.1 0h2.4v2.5h-2.4zm40 0h2.4v2.5h-2.4zm40.1 0h2.4v2.5h-2.4zm40.1 0h2.4v2.5h-2.4zm40.1 0h2.4v2.5h-2.4zm40.1 0h2.4v2.5h-2.4zm40 0h2.4v2.5h-2.4zm40.1 0h2.4v2.5h-2.4zm40.1 0h2.4v2.5h-2.4zm40.1 0h2.4v2.5h-2.4z" fill="#ccc"/><path d="m976.6 222.5h2.4v2.5h-2.4zm40.1 0h2.4v2.5h-2.4zm40.1 0h2.4v2.5h-2.4zm40.1 0h2.4v2.5h-2.4zm40.1 0h2.4v2.5h-2.4zm40 0h2.4v2.5h-2.4zm40.1 0h2.4v2.5h-2.4zm40.1 0h2.4v2.5h-2.4zm40.1 0h2.4v2.5h-2.4zm40.1 0h2.4v2.5h-2.4zm40 0h2.4v2.5h-2.4zm40.1 0h2.4v2.5h-2.4zm40.1 0h2.4v2.5h-2.4zm40.1 0h2.4v2.5h-2.4zm40.1 0h2.4v2.5h-2.4zm40 0h2.4v2.5h-2.4zm40.1 0h2.4v2.5h-2.4zm40.1 0h2.4v2.5h-2.4zm40.1 0h2.4v2.5h-2.4zm40.1 0h2.4v2.5h-2.4zm40 0h2.4v2.5h-2.4zm40.1 0h2.4v2.5h-2.4zm40.1 0h2.4v2.5h-2.4zm40.1 0h2.4v2.5h-2.4z" fill="#ccc"/><path d="m976.6 262.6h2.4v2.5h-2.4zm40.1 0h2.4v2.5h-2.4zm40.1 0h2.4v2.5h-2.4zm40.1 0h2.4v2.5h-2.4zm40.1 0h2.4v2.5h-2.4zm40 0h2.4v2.5h-2.4zm40.1 0h2.4v2.5h-2.4zm40.1 0h2.4v2.5h-2.4zm40.1 0h2.4v2.5h-2.4zm40.1 0h2.4v2.5h-2.4zm40 0h2.4v2.5h-2.4zm40.1 0h2.4v2.5h-2.4zm40.1 0h2.4v2.5h-2.4zm40.1 0h2.4v2.5h-2.4zm40.1 0h2.4v2.5h-2.4zm40 0h2.4v2.5h-2.4zm40.1 0h2.4v2.5h-2.4zm40.1 0h2.4v2.5h-2.4zm40.1 0h2.4v2.5h-2.4zm40.1 0h2.4v2.5h-2.4zm40 0h2.4v2.5h-2.4zm40.1 0h2.4v2.5h-2.4zm40.1 0h2.4v2.5h-2.4zm40.1 0h2.4v2.5h-2.4z" fill="#ccc"/><path d="m976.6 302.6h2.4v2.5h-2.4zm40.1 0h2.4v2.5h-2.4zm40.1 0h2.4v2.5h-2.4zm40.1 0h2.4v2.5h-2.4zm40.1 0h2.4v2.5h-2.4zm40 0h2.4v2.5h-2.4zm40.1 0h2.4v2.5h-2.4zm40.1 0h2.4v2.5h-2.4zm40.1 0h2.4v2.5h-2.4zm40.1 0h2.4v2.5h-2.4zm40 0h2.4v2.5h-2.4zm40.1 0h2.4v2.5h-2.4zm40.1 0h2.4v2.5h-2.4zm40.1 0h2.4v2.5h-2.4zm40.1 0h2.4v2.5h-2.4zm40 0h2.4v2.5h-2.4zm40.1 0h2.4v2.5h-2.4zm40.1 0h2.4v2.5h-2.4zm40.1 0h2.4v2.5h-2.4zm40.1 0h2.4v2.5h-2.4zm40 0h2.4v2.5h-2.4zm40.1 0h2.4v2.5h-2.4zm40.1 0h2.4v2.5h-2.4zm40.1 0h2.4v2.5h-2.4z" fill="#ccc"/><path d="m976.6 342.7h2.4v2.5h-2.4zm40.1 0h2.4v2.5h-2.4zm40.1 0h2.4v2.5h-2.4zm40.1 0h2.4v2.5h-2.4zm40.1 0h2.4v2.5h-2.4zm40 0h2.4v2.5h-2.4zm40.1 0h2.4v2.5h-2.4zm40.1 0h2.4v2.5h-2.4zm40.1 0h2.4v2.5h-2.4zm40.1 0h2.4v2.5h-2.4zm40 0h2.4v2.5h-2.4zm40.1 0h2.4v2.5h-2.4zm40.1 0h2.4v2.5h-2.4zm40.1 0h2.4v2.5h-2.4zm40.1 0h2.4v2.5h-2.4zm40 0h2.4v2.5h-2.4zm40.1 0h2.4v2.5h-2.4zm40.1 0h2.4v2.5h-2.4zm40.1 0h2.4v2.5h-2.4zm40.1 0h2.4v2.5h-2.4zm40 0h2.4v2.5h-2.4zm40.1 0h2.4v2.5h-2.4zm40.1 0h2.4v2.5h-2.4zm40.1 0h2.4v2.5h-2.4z" fill="#ccc"/><path d="m976.6 382.8h2.4v2.5h-2.4zm40.1 0h2.4v2.5h-2.4zm40.1 0h2.4v2.5h-2.4zm40.1 0h2.4v2.5h-2.4zm40.1 0h2.4v2.5h-2.4zm40 0h2.4v2.5h-2.4zm40.1 0h2.4v2.5h-2.4zm40.1 0h2.4v2.5h-2.4zm40.1 0h2.4v2.5h-2.4zm40.1 0h2.4v2.5h-2.4zm40 0h2.4v2.5h-2.4zm40.1 0h2.4v2.5h-2.4zm40.1 0h2.4v2.5h-2.4zm40.1 0h2.4v2.5h-2.4zm40.1 0h2.4v2.5h-2.4zm40 0h2.4v2.5h-2.4zm40.1 0h2.4v2.5h-2.4zm40.1 0h2.4v2.5h-2.4zm40.1 0h2.4v2.5h-2.4zm40.1 0h2.4v2.5h-2.4zm40 0h2.4v2.5h-2.4zm40.1 0h2.4v2.5h-2.4zm40.1 0h2.4v2.5h-2.4zm40.1 0h2.4v2.5h-2.4z" fill="#ccc"/><path d="m976.6 422.9h2.4v2.5h-2.4zm40.1 0h2.4v2.5h-2.4zm40.1 0h2.4v2.5h-2.4zm40.1 0h2.4v2.5h-2.4zm40.1 0h2.4v2.5h-2.4zm40 0h2.4v2.5h-2.4zm40.1 0h2.4v2.5h-2.4zm40.1 0h2.4v2.5h-2.4zm40.1 0h2.4v2.5h-2.4zm40.1 0h2.4v2.5h-2.4zm40 0h2.4v2.5h-2.4zm40.1 0h2.4v2.5h-2.4zm40.1 0h2.4v2.5h-2.4zm40.1 0h2.4v2.5h-2.4zm40.1 0h2.4v2.5h-2.4zm40 0h2.4v2.5h-2.4zm40.1 0h2.4v2.5h-2.4zm40.1 0h2.4v2.5h-2.4zm40.1 0h2.4v2.5h-2.4zm40.1 0h2.4v2.5h-2.4zm40 0h2.4v2.5h-2.4zm40.1 0h2.4v2.5h-2.4zm40.1 0h2.4v2.5h-2.4zm40.1 0h2.4v2.5h-2.4z" fill="#ccc"/><path d="m976.6 462.9h2.4v2.5h-2.4zm40.1 0h2.4v2.5h-2.4zm40.1 0h2.4v2.5h-2.4zm40.1 0h2.4v2.5h-2.4zm40.1 0h2.4v2.5h-2.4zm40 0h2.4v2.5h-2.4zm40.1 0h2.4v2.5h-2.4zm40.1 0h2.4v2.5h-2.4zm40.1 0h2.4v2.5h-2.4zm40.1 0h2.4v2.5h-2.4zm40 0h2.4v2.5h-2.4zm40.1 0h2.4v2.5h-2.4zm40.1 0h2.4v2.5h-2.4zm40.1 0h2.4v2.5h-2.4zm40.1 0h2.4v2.5h-2.4zm40 0h2.4v2.5h-2.4zm40.1 0h2.4v2.5h-2.4zm40.1 0h2.4v2.5h-2.4zm40.1 0h2.4v2.5h-2.4zm40.1 0h2.4v2.5h-2.4zm40 0h2.4v2.5h-2.4zm40.1 0h2.4v2.5h-2.4zm40.1 0h2.4v2.5h-2.4zm40.1 0h2.4v2.5h-2.4z" fill="#ccc"/><path d="m976.6 503h2.4v2.5h-2.4zm40.1 0h2.4v2.5h-2.4zm40.1 0h2.4v2.5h-2.4zm40.1 0h2.4v2.5h-2.4zm40.1 0h2.4v2.5h-2.4zm40 0h2.4v2.5h-2.4zm40.1 0h2.4v2.5h-2.4zm40.1 0h2.4v2.5h-2.4zm40.1 0h2.4v2.5h-2.4zm40.1 0h2.4v2.5h-2.4zm40 0h2.4v2.5h-2.4zm40.1 0h2.4v2.5h-2.4zm40.1 0h2.4v2.5h-2.4zm40.1 0h2.4v2.5h-2.4zm40.1 0h2.4v2.5h-2.4zm40 0h2.4v2.5h-2.4zm40.1 0h2.4v2.5h-2.4zm40.1 0h2.4v2.5h-2.4zm40.1 0h2.4v2.5h-2.4zm40.1 0h2.4v2.5h-2.4zm40 0h2.4v2.5h-2.4zm40.1 0h2.4v2.5h-2.4zm40.1 0h2.4v2.5h-2.4zm40.1 0h2.4v2.5h-2.4z" fill="#ccc"/><path d="m976.6 543.1h2.4v2.5h-2.4zm40.1 0h2.4v2.5h-2.4zm40.1 0h2.4v2.5h-2.4zm40.1 0h2.4v2.5h-2.4zm40.1 0h2.4v2.5h-2.4zm40 0h2.4v2.5h-2.4zm40.1 0h2.4v2.5h-2.4zm40.1 0h2.4v2.5h-2.4zm40.1 0h2.4v2.5h-2.4zm40.1 0h2.4v2.5h-2.4zm40 0h2.4v2.5h-2.4zm40.1 0h2.4v2.5h-2.4zm40.1 0h2.4v2.5h-2.4zm40.1 0h2.4v2.5h-2.4zm40.1 0h2.4v2.5h-2.4zm40 0h2.4v2.5h-2.4zm40.1 0h2.4v2.5h-2.4zm40.1 0h2.4v2.5h-2.4zm40.1 0h2.4v2.5h-2.4zm40.1 0h2.4v2.5h-2.4zm40 0h2.4v2.5h-2.4zm40.1 0h2.4v2.5h-2.4zm40.1 0h2.4v2.5h-2.4zm40.1 0h2.4v2.5h-2.4z" fill="#ccc"/><path d="m976.6 583.2h2.4v2.5h-2.4zm40.1 0h2.4v2.5h-2.4zm40.1 0h2.4v2.5h-2.4zm40.1 0h2.4v2.5h-2.4zm40.1 0h2.4v2.5h-2.4zm40 0h2.4v2.5h-2.4zm40.1 0h2.4v2.5h-2.4zm40.1 0h2.4v2.5h-2.4zm40.1 0h2.4v2.5h-2.4zm40.1 0h2.4v2.5h-2.4zm40 0h2.4v2.5h-2.4zm40.1 0h2.4v2.5h-2.4zm40.1 0h2.4v2.5h-2.4zm40.1 0h2.4v2.5h-2.4zm40.1 0h2.4v2.5h-2.4zm40 0h2.4v2.5h-2.4zm40.1 0h2.4v2.5h-2.4zm40.1 0h2.4v2.5h-2.4zm40.1 0h2.4v2.5h-2.4zm40.1 0h2.4v2.5h-2.4zm40 0h2.4v2.5h-2.4zm40.1 0h2.4v2.5h-2.4zm40.1 0h2.4v2.5h-2.4zm40.1 0h2.4v2.5h-2.4z" fill="#ccc"/><path d="m976.6 623.3h2.4v2.5h-2.4zm40.1 0h2.4v2.5h-2.4zm40.1 0h2.4v2.5h-2.4zm40.1 0h2.4v2.5h-2.4zm40.1 0h2.4v2.5h-2.4zm40 0h2.4v2.5h-2.4zm40.1 0h2.4v2.5h-2.4zm40.1 0h2.4v2.5h-2.4zm40.1 0h2.4v2.5h-2.4zm40.1 0h2.4v2.5h-2.4zm40 0h2.4v2.5h-2.4zm40.1 0h2.4v2.5h-2.4zm40.1 0h2.4v2.5h-2.4zm40.1 0h2.4v2.5h-2.4zm40.1 0h2.4v2.5h-2.4zm40 0h2.4v2.5h-2.4zm40.1 0h2.4v2.5h-2.4zm40.1 0h2.4v2.5h-2.4zm40.1 0h2.4v2.5h-2.4zm40.1 0h2.4v2.5h-2.4zm40 0h2.4v2.5h-2.4zm40.1 0h2.4v2.5h-2.4zm40.1 0h2.4v2.5h-2.4zm40.1 0h2.4v2.5h-2.4z" fill="#ccc"/><path d="m976.6 663.3h2.4v2.5h-2.4zm40.1 0h2.4v2.5h-2.4zm40.1 0h2.4v2.5h-2.4zm40.1 0h2.4v2.5h-2.4zm40.1 0h2.4v2.5h-2.4zm40 0h2.4v2.5h-2.4zm40.1 0h2.4v2.5h-2.4zm40.1 0h2.4v2.5h-2.4zm40.1 0h2.4v2.5h-2.4zm40.1 0h2.4v2.5h-2.4zm40 0h2.4v2.5h-2.4zm40.1 0h2.4v2.5h-2.4zm40.1 0h2.4v2.5h-2.4zm40.1 0h2.4v2.5h-2.4zm40.1 0h2.4v2.5h-2.4zm40 0h2.4v2.5h-2.4zm40.1 0h2.4v2.5h-2.4zm40.1 0h2.4v2.5h-2.4zm40.1 0h2.4v2.5h-2.4zm40.1 0h2.4v2.5h-2.4zm40 0h2.4v2.5h-2.4zm40.1 0h2.4v2.5h-2.4zm40.1 0h2.4v2.5h-2.4zm40.1 0h2.4v2.5h-2.4z" fill="#ccc"/><path d="m976.6 703.4h2.4v2.5h-2.4zm40.1 0h2.4v2.5h-2.4zm40.1 0h2.4v2.5h-2.4zm40.1 0h2.4v2.5h-2.4zm40.1 0h2.4v2.5h-2.4zm40 0h2.4v2.5h-2.4zm40.1 0h2.4v2.5h-2.4zm40.1 0h2.4v2.5h-2.4zm40.1 0h2.4v2.5h-2.4zm40.1 0h2.4v2.5h-2.4zm40 0h2.4v2.5h-2.4zm40.1 0h2.4v2.5h-2.4zm40.1 0h2.4v2.5h-2.4zm40.1 0h2.4v2.5h-2.4zm40.1 0h2.4v2.5h-2.4zm40 0h2.4v2.5h-2.4zm40.1 0h2.4v2.5h-2.4zm40.1 0h2.4v2.5h-2.4zm40.1 0h2.4v2.5h-2.4zm40.1 0h2.4v2.5h-2.4zm40 0h2.4v2.5h-2.4zm40.1 0h2.4v2.5h-2.4zm40.1 0h2.4v2.5h-2.4zm40.1 0h2.4v2.5h-2.4z" fill="#ccc"/><path d="m976.6 743.5h2.4v2.5h-2.4zm40.1 0h2.4v2.5h-2.4zm40.1 0h2.4v2.5h-2.4zm40.1 0h2.4v2.5h-2.4zm40.1 0h2.4v2.5h-2.4zm40 0h2.4v2.5h-2.4zm40.1 0h2.4v2.5h-2.4zm40.1 0h2.4v2.5h-2.4zm40.1 0h2.4v2.5h-2.4zm40.1 0h2.4v2.5h-2.4zm40 0h2.4v2.5h-2.4zm40.1 0h2.4v2.5h-2.4zm40.1 0h2.4v2.5h-2.4zm40.1 0h2.4v2.5h-2.4zm40.1 0h2.4v2.5h-2.4zm40 0h2.4v2.5h-2.4zm40.1 0h2.4v2.5h-2.4zm40.1 0h2.4v2.5h-2.4zm40.1 0h2.4v2.5h-2.4zm40.1 0h2.4v2.5h-2.4zm40 0h2.4v2.5h-2.4zm40.1 0h2.4v2.5h-2.4zm40.1 0h2.4v2.5h-2.4zm40.1 0h2.4v2.5h-2.4z" fill="#ccc"/><path d="m976.6 783.6h2.4v2.5h-2.4zm40.1 0h2.4v2.5h-2.4zm40.1 0h2.4v2.5h-2.4zm40.1 0h2.4v2.5h-2.4zm40.1 0h2.4v2.5h-2.4zm40 0h2.4v2.5h-2.4zm40.1 0h2.4v2.5h-2.4zm40.1 0h2.4v2.5h-2.4zm40.1 0h2.4v2.5h-2.4zm40.1 0h2.4v2.5h-2.4zm40 0h2.4v2.5h-2.4zm40.1 0h2.4v2.5h-2.4zm40.1 0h2.4v2.5h-2.4zm40.1 0h2.4v2.5h-2.4zm40.1 0h2.4v2.5h-2.4zm40 0h2.4v2.5h-2.4zm40.1 0h2.4v2.5h-2.4zm40.1 0h2.4v2.5h-2.4zm40.1 0h2.4v2.5h-2.4zm40.1 0h2.4v2.5h-2.4zm40 0h2.4v2.5h-2.4zm40.1 0h2.4v2.5h-2.4zm40.1 0h2.4v2.5h-2.4zm40.1 0h2.4v2.5h-2.4z" fill="#ccc"/><path d="m976.6 823.7h2.4v2.5h-2.4zm40.1 0h2.4v2.5h-2.4zm40.1 0h2.4v2.5h-2.4zm40.1 0h2.4v2.5h-2.4zm40.1 0h2.4v2.5h-2.4zm40 0h2.4v2.5h-2.4zm40.1 0h2.4v2.5h-2.4zm40.1 0h2.4v2.5h-2.4zm40.1 0h2.4v2.5h-2.4zm40.1 0h2.4v2.5h-2.4zm40 0h2.4v2.5h-2.4zm40.1 0h2.4v2.5h-2.4zm40.1 0h2.4v2.5h-2.4zm40.1 0h2.4v2.5h-2.4zm40.1 0h2.4v2.5h-2.4zm40 0h2.4v2.5h-2.4zm40.1 0h2.4v2.5h-2.4zm40.1 0h2.4v2.5h-2.4zm40.1 0h2.4v2.5h-2.4zm40.1 0h2.4v2.5h-2.4zm40 0h2.4v2.5h-2.4zm40.1 0h2.4v2.5h-2.4zm40.1 0h2.4v2.5h-2.4zm40.1 0h2.4v2.5h-2.4z" fill="#ccc"/><path d="m976.6 863.7h2.4v2.5h-2.4zm40.1 0h2.4v2.5h-2.4zm40.1 0h2.4v2.5h-2.4zm40.1 0h2.4v2.5h-2.4zm40.1 0h2.4v2.5h-2.4zm40 0h2.4v2.5h-2.4zm40.1 0h2.4v2.5h-2.4zm40.1 0h2.4v2.5h-2.4zm40.1 0h2.4v2.5h-2.4zm40.1 0h2.4v2.5h-2.4zm40 0h2.4v2.5h-2.4zm40.1 0h2.4v2.5h-2.4zm40.1 0h2.4v2.5h-2.4zm40.1 0h2.4v2.5h-2.4zm40.1 0h2.4v2.5h-2.4zm40 0h2.4v2.5h-2.4zm40.1 0h2.4v2.5h-2.4zm40.1 0h2.4v2.5h-2.4zm40.1 0h2.4v2.5h-2.4zm40.1 0h2.4v2.5h-2.4zm40 0h2.4v2.5h-2.4zm40.1 0h2.4v2.5h-2.4zm40.1 0h2.4v2.5h-2.4zm40.1 0h2.4v2.5h-2.4z" fill="#ccc"/><path d="m976.6 903.8h2.4v2.5h-2.4zm40.1 0h2.4v2.5h-2.4zm40.1 0h2.4v2.5h-2.4zm40.1 0h2.4v2.5h-2.4zm40.1 0h2.4v2.5h-2.4zm40 0h2.4v2.5h-2.4zm40.1 0h2.4v2.5h-2.4zm40.1 0h2.4v2.5h-2.4zm40.1 0h2.4v2.5h-2.4zm40.1 0h2.4v2.5h-2.4zm40 0h2.4v2.5h-2.4zm40.1 0h2.4v2.5h-2.4zm40.1 0h2.4v2.5h-2.4zm40.1 0h2.4v2.5h-2.4zm40.1 0h2.4v2.5h-2.4zm40 0h2.4v2.5h-2.4zm40.1 0h2.4v2.5h-2.4zm40.1 0h2.4v2.5h-2.4zm40.1 0h2.4v2.5h-2.4zm40.1 0h2.4v2.5h-2.4zm40 0h2.4v2.5h-2.4zm40.1 0h2.4v2.5h-2.4zm40.1 0h2.4v2.5h-2.4zm40.1 0h2.4v2.5h-2.4z" fill="#ccc"/><path d="m976.6 943.9h2.4v2.5h-2.4zm40.1 0h2.4v2.5h-2.4zm40.1 0h2.4v2.5h-2.4zm40.1 0h2.4v2.5h-2.4zm40.1 0h2.4v2.5h-2.4zm40 0h2.4v2.5h-2.4zm40.1 0h2.4v2.5h-2.4zm40.1 0h2.4v2.5h-2.4zm40.1 0h2.4v2.5h-2.4zm40.1 0h2.4v2.5h-2.4zm40 0h2.4v2.5h-2.4zm40.1 0h2.4v2.5h-2.4zm40.1 0h2.4v2.5h-2.4zm40.1 0h2.4v2.5h-2.4zm40.1 0h2.4v2.5h-2.4zm40 0h2.4v2.5h-2.4zm40.1 0h2.4v2.5h-2.4zm40.1 0h2.4v2.5h-2.4zm40.1 0h2.4v2.5h-2.4zm40.1 0h2.4v2.5h-2.4zm40 0h2.4v2.5h-2.4zm40.1 0h2.4v2.5h-2.4zm40.1 0h2.4v2.5h-2.4zm40.1 0h2.4v2.5h-2.4z" fill="#ccc"/><path d="m1000.3 8.1h2.5v2.5h-2.5zm41.3 0h2.5v2.5h-2.5zm41.3 0h2.5v2.5h-2.5zm41.3 0h2.5v2.5h-2.5zm41.3 0h2.5v2.5h-2.5zm41.3 0h2.5v2.5h-2.5zm41.3 0h2.5v2.5h-2.5zm41.2 0h2.5v2.5h-2.5zm41.3 0h2.5v2.5h-2.5zm41.3 0h2.5v2.5h-2.5zm41.3 0h2.5v2.5h-2.5zm41.3 0h2.5v2.5h-2.5zm41.3 0h2.5v2.5h-2.5zm41.3 0h2.5v2.5h-2.5zm41.3 0h2.5v2.5h-2.5zm41.3 0h2.5v2.5h-2.5zm41.3 0h2.5v2.5h-2.5zm41.3 0h2.5v2.5h-2.5zm41.3 0h2.5v2.5h-2.5zm41.3 0h2.5v2.5h-2.5zm41.3 0h2.5v2.5h-2.5zm41.3 0h2.5v2.5h-2.5zm41.3 0h2.5v2.5h-2.5zm-908.5 41.3h2.5v2.5h-2.5zm41.3 0h2.5v2.5h-2.5zm41.3 0h2.5v2.5h-2.5zm41.3 0h2.5v2.5h-2.5zm41.3 0h2.5v2.5h-2.5zm41.3 0h2.5v2.5h-2.5zm41.3 0h2.5v2.5h-2.5zm41.2 0h2.5v2.5h-2.5zm41.3 0h2.5v2.5h-2.5zm41.3 0h2.5v2.5h-2.5zm41.3 0h2.5v2.5h-2.5zm41.3 0h2.5v2.5h-2.5zm41.3 0h2.5v2.5h-2.5zm41.3 0h2.5v2.5h-2.5zm41.3 0h2.5v2.5h-2.5zm41.3 0h2.5v2.5h-2.5zm41.3 0h2.5v2.5h-2.5zm41.3 0h2.5v2.5h-2.5zm41.3 0h2.5v2.5h-2.5zm41.3 0h2.5v2.5h-2.5zm41.3 0h2.5v2.5h-2.5zm41.3 0h2.5v2.5h-2.5zm41.3 0h2.5v2.5h-2.5z" fill="#ddd"/><path d="m1000.3 90.7h2.5v2.5h-2.5zm41.3 0h2.5v2.5h-2.5zm41.3 0h2.5v2.5h-2.5zm41.3 0h2.5v2.5h-2.5zm41.3 0h2.5v2.5h-2.5zm41.3 0h2.5v2.5h-2.5zm41.3 0h2.5v2.5h-2.5zm41.2 0h2.5v2.5h-2.5zm41.3 0h2.5v2.5h-2.5zm41.3 0h2.5v2.5h-2.5zm41.3 0h2.5v2.5h-2.5zm41.3 0h2.5v2.5h-2.5zm41.3 0h2.5v2.5h-2.5zm41.3 0h2.5v2.5h-2.5zm41.3 0h2.5v2.5h-2.5zm41.3 0h2.5v2.5h-2.5zm41.3 0h2.5v2.5h-2.5zm41.3 0h2.5v2.5h-2.5zm41.3 0h2.5v2.5h-2.5zm41.3 0h2.5v2.5h-2.5zm41.3 0h2.5v2.5h-2.5zm41.3 0h2.5v2.5h-2.5zm41.3 0h2.5v2.5h-2.5z" fill="#ddd"/><path d="m1000.3 132h2.5v2.5h-2.5zm41.3 0h2.5v2.5h-2.5zm41.3 0h2.5v2.5h-2.5zm41.3 0h2.5v2.5h-2.5zm41.3 0h2.5v2.5h-2.5zm41.3 0h2.5v2.5h-2.5zm41.3 0h2.5v2.5h-2.5zm41.2 0h2.5v2.5h-2.5zm41.3 0h2.5v2.5h-2.5zm41.3 0h2.5v2.5h-2.5zm41.3 0h2.5v2.5h-2.5zm41.3 0h2.5v2.5h-2.5zm41.3 0h2.5v2.5h-2.5zm41.3 0h2.5v2.5h-2.5zm41.3 0h2.5v2.5h-2.5zm41.3 0h2.5v2.5h-2.5zm41.3 0h2.5v2.5h-2.5zm41.3 0h2.5v2.5h-2.5zm41.3 0h2.5v2.5h-2.5zm41.3 0h2.5v2.5h-2.5zm41.3 0h2.5v2.5h-2.5zm41.3 0h2.5v2.5h-2.5zm41.3 0h2.5v2.5h-2.5z" fill="#ddd"/><path d="m1000.3 173.3h2.5v2.5h-2.5zm41.3 0h2.5v2.5h-2.5zm41.3 0h2.5v2.5h-2.5zm41.3 0h2.5v2.5h-2.5zm41.3 0h2.5v2.5h-2.5zm41.3 0h2.5v2.5h-2.5zm41.3 0h2.5v2.5h-2.5zm41.2 0h2.5v2.5h-2.5zm41.3 0h2.5v2.5h-2.5zm41.3 0h2.5v2.5h-2.5zm41.3 0h2.5v2.5h-2.5zm41.3 0h2.5v2.5h-2.5zm41.3 0h2.5v2.5h-2.5zm41.3 0h2.5v2.5h-2.5zm41.3 0h2.5v2.5h-2.5zm41.3 0h2.5v2.5h-2.5zm41.3 0h2.5v2.5h-2.5zm41.3 0h2.5v2.5h-2.5zm41.3 0h2.5v2.5h-2.5zm41.3 0h2.5v2.5h-2.5zm41.3 0h2.5v2.5h-2.5zm41.3 0h2.5v2.5h-2.5zm41.3 0h2.5v2.5h-2.5z" fill="#ddd"/><path d="m1000.3 214.6h2.5v2.5h-2.5zm41.3 0h2.5v2.5h-2.5zm41.3 0h2.5v2.5h-2.5zm41.3 0h2.5v2.5h-2.5zm41.3 0h2.5v2.5h-2.5zm41.3 0h2.5v2.5h-2.5zm41.3 0h2.5v2.5h-2.5zm41.2 0h2.5v2.5h-2.5zm41.3 0h2.5v2.5h-2.5zm41.3 0h2.5v2.5h-2.5zm41.3 0h2.5v2.5h-2.5zm41.3 0h2.5v2.5h-2.5zm41.3 0h2.5v2.5h-2.5zm41.3 0h2.5v2.5h-2.5zm41.3 0h2.5v2.5h-2.5zm41.3 0h2.5v2.5h-2.5zm41.3 0h2.5v2.5h-2.5zm41.3 0h2.5v2.5h-2.5zm41.3 0h2.5v2.5h-2.5zm41.3 0h2.5v2.5h-2.5zm41.3 0h2.5v2.5h-2.5zm41.3 0h2.5v2.5h-2.5zm41.3 0h2.5v2.5h-2.5z" fill="#ddd"/><path d="m1000.3 255.9h2.5v2.5h-2.5zm41.3 0h2.5v2.5h-2.5zm41.3 0h2.5v2.5h-2.5zm41.3 0h2.5v2.5h-2.5zm41.3 0h2.5v2.5h-2.5zm41.3 0h2.5v2.5h-2.5zm41.3 0h2.5v2.5h-2.5zm41.2 0h2.5v2.5h-2.5zm41.3 0h2.5v2.5h-2.5zm41.3 0h2.5v2.5h-2.5zm41.3 0h2.5v2.5h-2.5zm41.3 0h2.5v2.5h-2.5zm41.3 0h2.5v2.5h-2.5zm41.3 0h2.5v2.5h-2.5zm41.3 0h2.5v2.5h-2.5zm41.3 0h2.5v2.5h-2.5zm41.3 0h2.5v2.5h-2.5zm41.3 0h2.5v2.5h-2.5zm41.3 0h2.5v2.5h-2.5zm41.3 0h2.5v2.5h-2.5zm41.3 0h2.5v2.5h-2.5zm41.3 0h2.5v2.5h-2.5zm41.3 0h2.5v2.5h-2.5z" fill="#ddd"/><path d="m1000.3 297.2h2.5v2.5h-2.5zm41.3 0h2.5v2.5h-2.5zm41.3 0h2.5v2.5h-2.5zm41.3 0h2.5v2.5h-2.5zm41.3 0h2.5v2.5h-2.5zm41.3 0h2.5v2.5h-2.5zm41.3 0h2.5v2.5h-2.5zm41.2 0h2.5v2.5h-2.5zm41.3 0h2.5v2.5h-2.5zm41.3 0h2.5v2.5h-2.5zm41.3 0h2.5v2.5h-2.5zm41.3 0h2.5v2.5h-2.5zm41.3 0h2.5v2.5h-2.5zm41.3 0h2.5v2.5h-2.5zm41.3 0h2.5v2.5h-2.5zm41.3 0h2.5v2.5h-2.5zm41.3 0h2.5v2.5h-2.5zm41.3 0h2.5v2.5h-2.5zm41.3 0h2.5v2.5h-2.5zm41.3 0h2.5v2.5h-2.5zm41.3 0h2.5v2.5h-2.5zm41.3 0h2.5v2.5h-2.5zm41.3 0h2.5v2.5h-2.5z" fill="#ddd"/><path d="m1000.3 338.5h2.5v2.5h-2.5zm41.3 0h2.5v2.5h-2.5zm41.3 0h2.5v2.5h-2.5zm41.3 0h2.5v2.5h-2.5zm41.3 0h2.5v2.5h-2.5zm41.3 0h2.5v2.5h-2.5zm41.3 0h2.5v2.5h-2.5zm41.2 0h2.5v2.5h-2.5zm41.3 0h2.5v2.5h-2.5zm41.3 0h2.5v2.5h-2.5zm41.3 0h2.5v2.5h-2.5zm41.3 0h2.5v2.5h-2.5zm41.3 0h2.5v2.5h-2.5zm41.3 0h2.5v2.5h-2.5zm41.3 0h2.5v2.5h-2.5zm41.3 0h2.5v2.5h-2.5zm41.3 0h2.5v2.5h-2.5zm41.3 0h2.5v2.5h-2.5zm41.3 0h2.5v2.5h-2.5zm41.3 0h2.5v2.5h-2.5zm41.3 0h2.5v2.5h-2.5zm41.3 0h2.5v2.5h-2.5zm41.3 0h2.5v2.5h-2.5z" fill="#ddd"/><path d="m1000.3 379.8h2.5v2.5h-2.5zm41.3 0h2.5v2.5h-2.5zm41.3 0h2.5v2.5h-2.5zm41.3 0h2.5v2.5h-2.5zm41.3 0h2.5v2.5h-2.5zm41.3 0h2.5v2.5h-2.5zm41.3 0h2.5v2.5h-2.5zm41.2 0h2.5v2.5h-2.5zm41.3 0h2.5v2.5h-2.5zm41.3 0h2.5v2.5h-2.5zm41.3 0h2.5v2.5h-2.5zm41.3 0h2.5v2.5h-2.5zm41.3 0h2.5v2.5h-2.5zm41.3 0h2.5v2.5h-2.5zm41.3 0h2.5v2.5h-2.5zm41.3 0h2.5v2.5h-2.5zm41.3 0h2.5v2.5h-2.5zm41.3 0h2.5v2.5h-2.5zm41.3 0h2.5v2.5h-2.5zm41.3 0h2.5v2.5h-2.5zm41.3 0h2.5v2.5h-2.5zm41.3 0h2.5v2.5h-2.5zm41.3 0h2.5v2.5h-2.5z" fill="#ddd"/><path d="m1000.3 421h2.5v2.5h-2.5zm41.3 0h2.5v2.5h-2.5zm41.3 0h2.5v2.5h-2.5zm41.3 0h2.5v2.5h-2.5zm41.3 0h2.5v2.5h-2.5zm41.3 0h2.5v2.5h-2.5zm41.3 0h2.5v2.5h-2.5zm41.2 0h2.5v2.5h-2.5zm41.3 0h2.5v2.5h-2.5zm41.3 0h2.5v2.5h-2.5zm41.3 0h2.5v2.5h-2.5zm41.3 0h2.5v2.5h-2.5zm41.3 0h2.5v2.5h-2.5zm41.3 0h2.5v2.5h-2.5zm41.3 0h2.5v2.5h-2.5zm41.3 0h2.5v2.5h-2.5zm41.3 0h2.5v2.5h-2.5zm41.3 0h2.5v2.5h-2.5zm41.3 0h2.5v2.5h-2.5zm41.3 0h2.5v2.5h-2.5zm41.3 0h2.5v2.5h-2.5zm41.3 0h2.5v2.5h-2.5zm41.3 0h2.5v2.5h-2.5z" fill="#ddd"/><path d="m1000.3 462.3h2.5v2.5h-2.5zm41.3 0h2.5v2.5h-2.5zm41.3 0h2.5v2.5h-2.5zm41.3 0h2.5v2.5h-2.5zm41.3 0h2.5v2.5h-2.5zm41.3 0h2.5v2.5h-2.5zm41.3 0h2.5v2.5h-2.5zm41.2 0h2.5v2.5h-2.5zm41.3 0h2.5v2.5h-2.5zm41.3 0h2.5v2.5h-2.5zm41.3 0h2.5v2.5h-2.5zm41.3 0h2.5v2.5h-2.5zm41.3 0h2.5v2.5h-2.5zm41.3 0h2.5v2.5h-2.5zm41.3 0h2.5v2.5h-2.5zm41.3 0h2.5v2.5h-2.5zm41.3 0h2.5v2.5h-2.5zm41.3 0h2.5v2.5h-2.5zm41.3 0h2.5v2.5h-2.5zm41.3 0h2.5v2.5h-2.5zm41.3 0h2.5v2.5h-2.5zm41.3 0h2.5v2.5h-2.5zm41.3 0h2.5v2.5h-2.5z" fill="#ddd"/><path d="m1000.3 503.6h2.5v2.5h-2.5zm41.3 0h2.5v2.5h-2.5zm41.3 0h2.5v2.5h-2.5zm41.3 0h2.5v2.5h-2.5zm41.3 0h2.5v2.5h-2.5zm41.3 0h2.5v2.5h-2.5zm41.3 0h2.5v2.5h-2.5zm41.2 0h2.5v2.5h-2.5zm41.3 0h2.5v2.5h-2.5zm41.3 0h2.5v2.5h-2.5zm41.3 0h2.5v2.5h-2.5zm41.3 0h2.5v2.5h-2.5zm41.3 0h2.5v2.5h-2.5zm41.3 0h2.5v2.5h-2.5zm41.3 0h2.5v2.5h-2.5zm41.3 0h2.5v2.5h-2.5zm41.3 0h2.5v2.5h-2.5zm41.3 0h2.5v2.5h-2.5zm41.3 0h2.5v2.5h-2.5zm41.3 0h2.5v2.5h-2.5zm41.3 0h2.5v2.5h-2.5zm41.3 0h2.5v2.5h-2.5zm41.3 0h2.5v2.5h-2.5z" fill="#ddd"/><path d="m1000.3 544.9h2.5v2.5h-2.5zm41.3 0h2.5v2.5h-2.5zm41.3 0h2.5v2.5h-2.5zm41.3 0h2.5v2.5h-2.5zm41.3 0h2.5v2.5h-2.5zm41.3 0h2.5v2.5h-2.5zm41.3 0h2.5v2.5h-2.5zm41.2 0h2.5v2.5h-2.5zm41.3 0h2.5v2.5h-2.5zm41.3 0h2.5v2.5h-2.5zm41.3 0h2.5v2.5h-2.5zm41.3 0h2.5v2.5h-2.5zm41.3 0h2.5v2.5h-2.5zm41.3 0h2.5v2.5h-2.5zm41.3 0h2.5v2.5h-2.5zm41.3 0h2.5v2.5h-2.5zm41.3 0h2.5v2.5h-2.5zm41.3 0h2.5v2.5h-2.5zm41.3 0h2.5v2.5h-2.5zm41.3 0h2.5v2.5h-2.5zm41.3 0h2.5v2.5h-2.5zm41.3 0h2.5v2.5h-2.5zm41.3 0h2.5v2.5h-2.5z" fill="#ddd"/><path d="m1000.3 586.2h2.5v2.5h-2.5zm41.3 0h2.5v2.5h-2.5zm41.3 0h2.5v2.5h-2.5zm41.3 0h2.5v2.5h-2.5zm41.3 0h2.5v2.5h-2.5zm41.3 0h2.5v2.5h-2.5zm41.3 0h2.5v2.5h-2.5zm41.2 0h2.5v2.5h-2.5zm41.3 0h2.5v2.5h-2.5zm41.3 0h2.5v2.5h-2.5zm41.3 0h2.5v2.5h-2.5zm41.3 0h2.5v2.5h-2.5zm41.3 0h2.5v2.5h-2.5zm41.3 0h2.5v2.5h-2.5zm41.3 0h2.5v2.5h-2.5zm41.3 0h2.5v2.5h-2.5zm41.3 0h2.5v2.5h-2.5zm41.3 0h2.5v2.5h-2.5zm41.3 0h2.5v2.5h-2.5zm41.3 0h2.5v2.5h-2.5zm41.3 0h2.5v2.5h-2.5zm41.3 0h2.5v2.5h-2.5zm41.3 0h2.5v2.5h-2.5z" fill="#ddd"/><path d="m1000.3 627.5h2.5v2.5h-2.5zm41.3 0h2.5v2.5h-2.5zm41.3 0h2.5v2.5h-2.5zm41.3 0h2.5v2.5h-2.5zm41.3 0h2.5v2.5h-2.5zm41.3 0h2.5v2.5h-2.5zm41.3 0h2.5v2.5h-2.5zm41.2 0h2.5v2.5h-2.5zm41.3 0h2.5v2.5h-2.5zm41.3 0h2.5v2.5h-2.5zm41.3 0h2.5v2.5h-2.5zm41.3 0h2.5v2.5h-2.5zm41.3 0h2.5v2.5h-2.5zm41.3 0h2.5v2.5h-2.5zm41.3 0h2.5v2.5h-2.5zm41.3 0h2.5v2.5h-2.5zm41.3 0h2.5v2.5h-2.5zm41.3 0h2.5v2.5h-2.5zm41.3 0h2.5v2.5h-2.5zm41.3 0h2.5v2.5h-2.5zm41.3 0h2.5v2.5h-2.5zm41.3 0h2.5v2.5h-2.5zm41.3 0h2.5v2.5h-2.5z" fill="#ddd"/><path d="m1000.3 668.8h2.5v2.5h-2.5zm41.3 0h2.5v2.5h-2.5zm41.3 0h2.5v2.5h-2.5zm41.3 0h2.5v2.5h-2.5zm41.3 0h2.5v2.5h-2.5zm41.3 0h2.5v2.5h-2.5zm41.3 0h2.5v2.5h-2.5zm41.2 0h2.5v2.5h-2.5zm41.3 0h2.5v2.5h-2.5zm41.3 0h2.5v2.5h-2.5zm41.3 0h2.5v2.5h-2.5zm41.3 0h2.5v2.5h-2.5zm41.3 0h2.5v2.5h-2.5zm41.3 0h2.5v2.5h-2.5zm41.3 0h2.5v2.5h-2.5zm41.3 0h2.5v2.5h-2.5zm41.3 0h2.5v2.5h-2.5zm41.3 0h2.5v2.5h-2.5zm41.3 0h2.5v2.5h-2.5zm41.3 0h2.5v2.5h-2.5zm41.3 0h2.5v2.5h-2.5zm41.3 0h2.5v2.5h-2.5zm41.3 0h2.5v2.5h-2.5z" fill="#ddd"/><path d="m1000.3 710.1h2.5v2.5h-2.5zm41.3 0h2.5v2.5h-2.5zm41.3 0h2.5v2.5h-2.5zm41.3 0h2.5v2.5h-2.5zm41.3 0h2.5v2.5h-2.5zm41.3 0h2.5v2.5h-2.5zm41.3 0h2.5v2.5h-2.5zm41.2 0h2.5v2.5h-2.5zm41.3 0h2.5v2.5h-2.5zm41.3 0h2.5v2.5h-2.5zm41.3 0h2.5v2.5h-2.5zm41.3 0h2.5v2.5h-2.5zm41.3 0h2.5v2.5h-2.5zm41.3 0h2.5v2.5h-2.5zm41.3 0h2.5v2.5h-2.5zm41.3 0h2.5v2.5h-2.5zm41.3 0h2.5v2.5h-2.5zm41.3 0h2.5v2.5h-2.5zm41.3 0h2.5v2.5h-2.5zm41.3 0h2.5v2.5h-2.5zm41.3 0h2.5v2.5h-2.5zm41.3 0h2.5v2.5h-2.5zm41.3 0h2.5v2.5h-2.5z" fill="#ddd"/><path d="m1000.3 751.4h2.5v2.5h-2.5zm41.3 0h2.5v2.5h-2.5zm41.3 0h2.5v2.5h-2.5zm41.3 0h2.5v2.5h-2.5zm41.3 0h2.5v2.5h-2.5zm41.3 0h2.5v2.5h-2.5zm41.3 0h2.5v2.5h-2.5zm41.2 0h2.5v2.5h-2.5zm41.3 0h2.5v2.5h-2.5zm41.3 0h2.5v2.5h-2.5zm41.3 0h2.5v2.5h-2.5zm41.3 0h2.5v2.5h-2.5zm41.3 0h2.5v2.5h-2.5zm41.3 0h2.5v2.5h-2.5zm41.3 0h2.5v2.5h-2.5zm41.3 0h2.5v2.5h-2.5zm41.3 0h2.5v2.5h-2.5zm41.3 0h2.5v2.5h-2.5zm41.3 0h2.5v2.5h-2.5zm41.3 0h2.5v2.5h-2.5zm41.3 0h2.5v2.5h-2.5zm41.3 0h2.5v2.5h-2.5zm41.3 0h2.5v2.5h-2.5z" fill="#ddd"/><path d="m1000.3 792.7h2.5v2.5h-2.5zm41.3 0h2.5v2.5h-2.5zm41.3 0h2.5v2.5h-2.5zm41.3 0h2.5v2.5h-2.5zm41.3 0h2.5v2.5h-2.5zm41.3 0h2.5v2.5h-2.5zm41.3 0h2.5v2.5h-2.5zm41.2 0h2.5v2.5h-2.5zm41.3 0h2.5v2.5h-2.5zm41.3 0h2.5v2.5h-2.5zm41.3 0h2.5v2.5h-2.5zm41.3 0h2.5v2.5h-2.5zm41.3 0h2.5v2.5h-2.5zm41.3 0h2.5v2.5h-2.5zm41.3 0h2.5v2.5h-2.5zm41.3 0h2.5v2.5h-2.5zm41.3 0h2.5v2.5h-2.5zm41.3 0h2.5v2.5h-2.5zm41.3 0h2.5v2.5h-2.5zm41.3 0h2.5v2.5h-2.5zm41.3 0h2.5v2.5h-2.5zm41.3 0h2.5v2.5h-2.5zm41.3 0h2.5v2.5h-2.5z" fill="#ddd"/><path d="m1000.3 834h2.5v2.5h-2.5zm41.3 0h2.5v2.5h-2.5zm41.3 0h2.5v2.5h-2.5zm41.3 0h2.5v2.5h-2.5zm41.3 0h2.5v2.5h-2.5zm41.3 0h2.5v2.5h-2.5zm41.3 0h2.5v2.5h-2.5zm41.2 0h2.5v2.5h-2.5zm41.3 0h2.5v2.5h-2.5zm41.3 0h2.5v2.5h-2.5zm41.3 0h2.5v2.5h-2.5zm41.3 0h2.5v2.5h-2.5zm41.3 0h2.5v2.5h-2.5zm41.3 0h2.5v2.5h-2.5zm41.3 0h2.5v2.5h-2.5zm41.3 0h2.5v2.5h-2.5zm41.3 0h2.5v2.5h-2.5zm41.3 0h2.5v2.5h-2.5zm41.3 0h2.5v2.5h-2.5zm41.3 0h2.5v2.5h-2.5zm41.3 0h2.5v2.5h-2.5zm41.3 0h2.5v2.5h-2.5zm41.3 0h2.5v2.5h-2.5z" fill="#ddd"/><path d="m1000.3 875.3h2.5v2.5h-2.5zm41.3 0h2.5v2.5h-2.5zm41.3 0h2.5v2.5h-2.5zm41.3 0h2.5v2.5h-2.5zm41.3 0h2.5v2.5h-2.5zm41.3 0h2.5v2.5h-2.5zm41.3 0h2.5v2.5h-2.5zm41.2 0h2.5v2.5h-2.5zm41.3 0h2.5v2.5h-2.5zm41.3 0h2.5v2.5h-2.5zm41.3 0h2.5v2.5h-2.5zm41.3 0h2.5v2.5h-2.5zm41.3 0h2.5v2.5h-2.5zm41.3 0h2.5v2.5h-2.5zm41.3 0h2.5v2.5h-2.5zm41.3 0h2.5v2.5h-2.5zm41.3 0h2.5v2.5h-2.5zm41.3 0h2.5v2.5h-2.5zm41.3 0h2.5v2.5h-2.5zm41.3 0h2.5v2.5h-2.5zm41.3 0h2.5v2.5h-2.5zm41.3 0h2.5v2.5h-2.5zm41.3 0h2.5v2.5h-2.5z" fill="#ddd"/><path d="m1000.3 916.6h2.5v2.5h-2.5zm41.3 0h2.5v2.5h-2.5zm41.3 0h2.5v2.5h-2.5zm41.3 0h2.5v2.5h-2.5zm41.3 0h2.5v2.5h-2.5zm41.3 0h2.5v2.5h-2.5zm41.3 0h2.5v2.5h-2.5zm41.2 0h2.5v2.5h-2.5zm41.3 0h2.5v2.5h-2.5zm41.3 0h2.5v2.5h-2.5zm41.3 0h2.5v2.5h-2.5zm41.3 0h2.5v2.5h-2.5zm41.3 0h2.5v2.5h-2.5zm41.3 0h2.5v2.5h-2.5zm41.3 0h2.5v2.5h-2.5zm41.3 0h2.5v2.5h-2.5zm41.3 0h2.5v2.5h-2.5zm41.3 0h2.5v2.5h-2.5zm41.3 0h2.5v2.5h-2.5zm41.3 0h2.5v2.5h-2.5zm41.3 0h2.5v2.5h-2.5zm41.3 0h2.5v2.5h-2.5zm41.3 0h2.5v2.5h-2.5z" fill="#ddd"/><path d="m1000.3 957.9h2.5v2.5h-2.5zm41.3 0h2.5v2.5h-2.5zm41.3 0h2.5v2.5h-2.5zm41.3 0h2.5v2.5h-2.5zm41.3 0h2.5v2.5h-2.5zm41.3 0h2.5v2.5h-2.5zm41.3 0h2.5v2.5h-2.5zm41.2 0h2.5v2.5h-2.5zm41.3 0h2.5v2.5h-2.5zm41.3 0h2.5v2.5h-2.5zm41.3 0h2.5v2.5h-2.5zm41.3 0h2.5v2.5h-2.5zm41.3 0h2.5v2.5h-2.5zm41.3 0h2.5v2.5h-2.5zm41.3 0h2.5v2.5h-2.5zm41.3 0h2.5v2.5h-2.5zm41.3 0h2.5v2.5h-2.5zm41.3 0h2.5v2.5h-2.5zm41.3 0h2.5v2.5h-2.5zm41.3 0h2.5v2.5h-2.5zm41.3 0h2.5v2.5h-2.5zm41.3 0h2.5v2.5h-2.5zm41.3 0h2.5v2.5h-2.5z" fill="#ddd"/></g></svg>